G04 #@! TF.GenerationSoftware,KiCad,Pcbnew,(5.1.5)-1*
G04 #@! TF.CreationDate,2021-06-10T20:45:23-04:00*
G04 #@! TF.ProjectId,meishi2,6d656973-6869-4322-9e6b-696361645f70,rev?*
G04 #@! TF.SameCoordinates,Original*
G04 #@! TF.FileFunction,Soldermask,Top*
G04 #@! TF.FilePolarity,Negative*
%FSLAX46Y46*%
G04 Gerber Fmt 4.6, Leading zero omitted, Abs format (unit mm)*
G04 Created by KiCad (PCBNEW (5.1.5)-1) date 2021-06-10 20:45:23*
%MOMM*%
%LPD*%
G04 APERTURE LIST*
%ADD10C,0.010000*%
%ADD11C,0.100000*%
G04 APERTURE END LIST*
D10*
G36*
X112206768Y-96455602D02*
G01*
X112195428Y-96483714D01*
X112130215Y-96552946D01*
X112118574Y-96556285D01*
X112087403Y-96500137D01*
X112086571Y-96483714D01*
X112142361Y-96413931D01*
X112163426Y-96411143D01*
X112206768Y-96455602D01*
G37*
X112206768Y-96455602D02*
X112195428Y-96483714D01*
X112130215Y-96552946D01*
X112118574Y-96556285D01*
X112087403Y-96500137D01*
X112086571Y-96483714D01*
X112142361Y-96413931D01*
X112163426Y-96411143D01*
X112206768Y-96455602D01*
G36*
X112014000Y-96592571D02*
G01*
X111977714Y-96628857D01*
X111941428Y-96592571D01*
X111977714Y-96556285D01*
X112014000Y-96592571D01*
G37*
X112014000Y-96592571D02*
X111977714Y-96628857D01*
X111941428Y-96592571D01*
X111977714Y-96556285D01*
X112014000Y-96592571D01*
G36*
X111941428Y-99930857D02*
G01*
X111905143Y-99967143D01*
X111868857Y-99930857D01*
X111905143Y-99894571D01*
X111941428Y-99930857D01*
G37*
X111941428Y-99930857D02*
X111905143Y-99967143D01*
X111868857Y-99930857D01*
X111905143Y-99894571D01*
X111941428Y-99930857D01*
G36*
X109691714Y-99858285D02*
G01*
X109655429Y-99894571D01*
X109619143Y-99858285D01*
X109655429Y-99822000D01*
X109691714Y-99858285D01*
G37*
X109691714Y-99858285D02*
X109655429Y-99894571D01*
X109619143Y-99858285D01*
X109655429Y-99822000D01*
X109691714Y-99858285D01*
G36*
X110272286Y-102253142D02*
G01*
X110236000Y-102289428D01*
X110199714Y-102253142D01*
X110236000Y-102216857D01*
X110272286Y-102253142D01*
G37*
X110272286Y-102253142D02*
X110236000Y-102289428D01*
X110199714Y-102253142D01*
X110236000Y-102216857D01*
X110272286Y-102253142D01*
G36*
X115715143Y-102833714D02*
G01*
X115678857Y-102870000D01*
X115642571Y-102833714D01*
X115678857Y-102797428D01*
X115715143Y-102833714D01*
G37*
X115715143Y-102833714D02*
X115678857Y-102870000D01*
X115642571Y-102833714D01*
X115678857Y-102797428D01*
X115715143Y-102833714D01*
G36*
X114084731Y-104324438D02*
G01*
X114076183Y-104347449D01*
X114010915Y-104436625D01*
X113933622Y-104474416D01*
X113900857Y-104439171D01*
X113949001Y-104376629D01*
X114011376Y-104320049D01*
X114090053Y-104267100D01*
X114084731Y-104324438D01*
G37*
X114084731Y-104324438D02*
X114076183Y-104347449D01*
X114010915Y-104436625D01*
X113933622Y-104474416D01*
X113900857Y-104439171D01*
X113949001Y-104376629D01*
X114011376Y-104320049D01*
X114090053Y-104267100D01*
X114084731Y-104324438D01*
G36*
X111029389Y-104651273D02*
G01*
X111060004Y-104818354D01*
X111025493Y-104992997D01*
X111013586Y-105016713D01*
X110955106Y-105097390D01*
X110912870Y-105045435D01*
X110899955Y-105012865D01*
X110856649Y-104830776D01*
X110857991Y-104665973D01*
X110899455Y-104565772D01*
X110943571Y-104556922D01*
X111029389Y-104651273D01*
G37*
X111029389Y-104651273D02*
X111060004Y-104818354D01*
X111025493Y-104992997D01*
X111013586Y-105016713D01*
X110955106Y-105097390D01*
X110912870Y-105045435D01*
X110899955Y-105012865D01*
X110856649Y-104830776D01*
X110857991Y-104665973D01*
X110899455Y-104565772D01*
X110943571Y-104556922D01*
X111029389Y-104651273D01*
G36*
X117697162Y-102803692D02*
G01*
X117692436Y-102882095D01*
X117654630Y-102996615D01*
X117610650Y-102997239D01*
X117577809Y-102966762D01*
X117529727Y-102854321D01*
X117574894Y-102764003D01*
X117628329Y-102749047D01*
X117697162Y-102803692D01*
G37*
X117697162Y-102803692D02*
X117692436Y-102882095D01*
X117654630Y-102996615D01*
X117610650Y-102997239D01*
X117577809Y-102966762D01*
X117529727Y-102854321D01*
X117574894Y-102764003D01*
X117628329Y-102749047D01*
X117697162Y-102803692D01*
G36*
X110852857Y-107042857D02*
G01*
X110816571Y-107079142D01*
X110780286Y-107042857D01*
X110816571Y-107006571D01*
X110852857Y-107042857D01*
G37*
X110852857Y-107042857D02*
X110816571Y-107079142D01*
X110780286Y-107042857D01*
X110816571Y-107006571D01*
X110852857Y-107042857D01*
G36*
X111125931Y-94625923D02*
G01*
X111134549Y-94651285D01*
X111147778Y-94819650D01*
X111260871Y-94885584D01*
X111292569Y-94887143D01*
X111395111Y-94862214D01*
X111402272Y-94822870D01*
X111415812Y-94758808D01*
X111523338Y-94727819D01*
X111677046Y-94731960D01*
X111829131Y-94773289D01*
X111881056Y-94802255D01*
X112010818Y-94868973D01*
X112069723Y-94828825D01*
X112069930Y-94828210D01*
X112141284Y-94755078D01*
X112237174Y-94749801D01*
X112287887Y-94810924D01*
X112286143Y-94832714D01*
X112334216Y-94906643D01*
X112458086Y-94945476D01*
X112617267Y-94928342D01*
X112620556Y-94923428D01*
X112739714Y-94923428D01*
X112776000Y-94959714D01*
X112812286Y-94923428D01*
X112776000Y-94887142D01*
X112739714Y-94923428D01*
X112620556Y-94923428D01*
X112684793Y-94827484D01*
X112774869Y-94713981D01*
X112982470Y-94656972D01*
X112985686Y-94656592D01*
X113159203Y-94648349D01*
X113261301Y-94699329D01*
X113345583Y-94843556D01*
X113371659Y-94901584D01*
X113482504Y-95096733D01*
X113618909Y-95183401D01*
X113810143Y-95196924D01*
X113894382Y-95234432D01*
X113900857Y-95258063D01*
X113963623Y-95304518D01*
X114104701Y-95322571D01*
X114310701Y-95360575D01*
X114449415Y-95429120D01*
X114615654Y-95515153D01*
X114724522Y-95537977D01*
X114901670Y-95586866D01*
X115136125Y-95708786D01*
X115383198Y-95873505D01*
X115598197Y-96050795D01*
X115736431Y-96210424D01*
X115747150Y-96229714D01*
X115818998Y-96345872D01*
X115856958Y-96356220D01*
X115858633Y-96342200D01*
X115879230Y-96276160D01*
X115950393Y-96327079D01*
X115999832Y-96417784D01*
X115932250Y-96488115D01*
X115867851Y-96554047D01*
X115917174Y-96628300D01*
X115964863Y-96666516D01*
X116093412Y-96727398D01*
X116149836Y-96702618D01*
X116212970Y-96712266D01*
X116329274Y-96826655D01*
X116482290Y-97023176D01*
X116655559Y-97279220D01*
X116832623Y-97572178D01*
X116975789Y-97837208D01*
X117107340Y-98105434D01*
X117257964Y-98427327D01*
X117415656Y-98775357D01*
X117568407Y-99121994D01*
X117704211Y-99439709D01*
X117811061Y-99700972D01*
X117876950Y-99878254D01*
X117892286Y-99938538D01*
X117922967Y-100042955D01*
X117999568Y-100217712D01*
X118029931Y-100279007D01*
X118115878Y-100519547D01*
X118163587Y-100800591D01*
X118171414Y-101076294D01*
X118137713Y-101300812D01*
X118070898Y-101420908D01*
X117981683Y-101563517D01*
X117964857Y-101657600D01*
X117918092Y-101825409D01*
X117837857Y-101949602D01*
X117760338Y-102065710D01*
X117796753Y-102122871D01*
X117801571Y-102124650D01*
X117889698Y-102193125D01*
X117863601Y-102254435D01*
X117749560Y-102253910D01*
X117625521Y-102275291D01*
X117544423Y-102432633D01*
X117505889Y-102727065D01*
X117503462Y-102991306D01*
X117500807Y-103211899D01*
X117474812Y-103315563D01*
X117417239Y-103329725D01*
X117403227Y-103325016D01*
X117332742Y-103316316D01*
X117356553Y-103398149D01*
X117369232Y-103422443D01*
X117415275Y-103564515D01*
X117430662Y-103726705D01*
X117416511Y-103859092D01*
X117373942Y-103911754D01*
X117358383Y-103906242D01*
X117327590Y-103938417D01*
X117338576Y-104069034D01*
X117340111Y-104076492D01*
X117348461Y-104264845D01*
X117310023Y-104394000D01*
X117262711Y-104440993D01*
X117260051Y-104364041D01*
X117269328Y-104301807D01*
X117273491Y-104169733D01*
X117234605Y-104142804D01*
X117184920Y-104239044D01*
X117166571Y-104390518D01*
X117128816Y-104562368D01*
X117053114Y-104639723D01*
X116977622Y-104710958D01*
X116983899Y-104754844D01*
X116988208Y-104868655D01*
X116949310Y-104973725D01*
X116839169Y-105082114D01*
X116701790Y-105078684D01*
X116546288Y-105081984D01*
X116489256Y-105150601D01*
X116394348Y-105250462D01*
X116335660Y-105264857D01*
X116238394Y-105326900D01*
X116179286Y-105450614D01*
X116110457Y-105585151D01*
X116032761Y-105598034D01*
X115949481Y-105618370D01*
X115932857Y-105697379D01*
X115889631Y-105848222D01*
X115788707Y-105973371D01*
X115673214Y-106028071D01*
X115625508Y-106016311D01*
X115582140Y-106013643D01*
X115599356Y-106051930D01*
X115592687Y-106123766D01*
X115537997Y-106135714D01*
X115439060Y-106191928D01*
X115424857Y-106244571D01*
X115382931Y-106341104D01*
X115347102Y-106353428D01*
X115236067Y-106400079D01*
X115163573Y-106459202D01*
X115033261Y-106529364D01*
X114956906Y-106526259D01*
X114828580Y-106535219D01*
X114671911Y-106608169D01*
X114518203Y-106679531D01*
X114410250Y-106680861D01*
X114351854Y-106686386D01*
X114352630Y-106719826D01*
X114297633Y-106781119D01*
X114108982Y-106828716D01*
X113797677Y-106860804D01*
X113411000Y-106875089D01*
X113222567Y-106892101D01*
X113113458Y-106929443D01*
X113102571Y-106947412D01*
X113057570Y-106982219D01*
X113030000Y-106970285D01*
X112963161Y-106976820D01*
X112957428Y-107003671D01*
X112897657Y-107049487D01*
X112776000Y-107036372D01*
X112633482Y-107027071D01*
X112594571Y-107071275D01*
X112541145Y-107140014D01*
X112421796Y-107145170D01*
X112297922Y-107092847D01*
X112247152Y-107036734D01*
X112136772Y-106953832D01*
X111950209Y-106900870D01*
X111919209Y-106897255D01*
X111729785Y-106872500D01*
X111607892Y-106843615D01*
X111598949Y-106839328D01*
X111496427Y-106839343D01*
X111360857Y-106880590D01*
X111100719Y-106950292D01*
X110842757Y-106959331D01*
X110636198Y-106909969D01*
X110549553Y-106843285D01*
X110439623Y-106740170D01*
X110372886Y-106716285D01*
X110276156Y-106657877D01*
X110244277Y-106602828D01*
X110174623Y-106526271D01*
X110132670Y-106531441D01*
X110040450Y-106520294D01*
X110012087Y-106488542D01*
X110002314Y-106437644D01*
X110043358Y-106455355D01*
X110118205Y-106463480D01*
X110127143Y-106438047D01*
X110079223Y-106348953D01*
X109983120Y-106326047D01*
X109910319Y-106378259D01*
X109903699Y-106410134D01*
X109885146Y-106477702D01*
X109861407Y-106444267D01*
X109767596Y-106386409D01*
X109653540Y-106396673D01*
X109466063Y-106385152D01*
X109240049Y-106254930D01*
X109235410Y-106251405D01*
X109058752Y-106133547D01*
X108916398Y-106067183D01*
X108886578Y-106061921D01*
X108782239Y-106012644D01*
X108621895Y-105887097D01*
X108499674Y-105771636D01*
X108335918Y-105613206D01*
X108212809Y-105508211D01*
X108168566Y-105482571D01*
X108103820Y-105430446D01*
X107973894Y-105292325D01*
X107887616Y-105192285D01*
X110562571Y-105192285D01*
X110589124Y-105252020D01*
X110610952Y-105240666D01*
X110619638Y-105154541D01*
X110610952Y-105143904D01*
X110567809Y-105153866D01*
X110562571Y-105192285D01*
X107887616Y-105192285D01*
X107804225Y-105095593D01*
X107794144Y-105083428D01*
X109691714Y-105083428D01*
X109728000Y-105119714D01*
X109764286Y-105083428D01*
X109728000Y-105047142D01*
X109691714Y-105083428D01*
X107794144Y-105083428D01*
X107764035Y-105047099D01*
X107732335Y-105010857D01*
X110490000Y-105010857D01*
X110526286Y-105047142D01*
X110562571Y-105010857D01*
X110526286Y-104974571D01*
X110490000Y-105010857D01*
X107732335Y-105010857D01*
X107577017Y-104833290D01*
X107410175Y-104666155D01*
X107295223Y-104577031D01*
X107283152Y-104571903D01*
X107197329Y-104485434D01*
X107108484Y-104310143D01*
X107032877Y-104095489D01*
X106986767Y-103890934D01*
X106986414Y-103745937D01*
X107001941Y-103716459D01*
X107007441Y-103626437D01*
X106972804Y-103446377D01*
X106911483Y-103221125D01*
X106836930Y-102995530D01*
X106762599Y-102814441D01*
X106704371Y-102724423D01*
X106669144Y-102635681D01*
X106628634Y-102444121D01*
X106588586Y-102191649D01*
X106554743Y-101920172D01*
X106532852Y-101671594D01*
X106528657Y-101487821D01*
X106530850Y-101458663D01*
X106527824Y-101335849D01*
X106496621Y-101310920D01*
X106436266Y-101274688D01*
X106366905Y-101113191D01*
X106320540Y-100946857D01*
X106307706Y-100836474D01*
X106300728Y-100729143D01*
X106426000Y-100729143D01*
X106462286Y-100765428D01*
X106498571Y-100729143D01*
X106462286Y-100692857D01*
X106426000Y-100729143D01*
X106300728Y-100729143D01*
X106294724Y-100636795D01*
X106289070Y-100511428D01*
X106275176Y-100148571D01*
X106172663Y-100384428D01*
X106085155Y-100541213D01*
X106004009Y-100618563D01*
X105994075Y-100620285D01*
X105925757Y-100678649D01*
X105918000Y-100724252D01*
X105856961Y-100823763D01*
X105754714Y-100877979D01*
X105564900Y-100967133D01*
X105467331Y-101036633D01*
X105309979Y-101108787D01*
X105075732Y-101095344D01*
X104857370Y-101079822D01*
X104751789Y-101136485D01*
X104679165Y-101190605D01*
X104590739Y-101140992D01*
X104477754Y-101092513D01*
X104326091Y-101137679D01*
X104296020Y-101152804D01*
X104178120Y-101239744D01*
X104158444Y-101312080D01*
X104159241Y-101313038D01*
X104144141Y-101322309D01*
X104037759Y-101265055D01*
X104013000Y-101249791D01*
X103878795Y-101185823D01*
X103814441Y-101194599D01*
X103813429Y-101201737D01*
X103778739Y-101258467D01*
X103692787Y-101218350D01*
X103582751Y-101106658D01*
X103475806Y-100948666D01*
X103423013Y-100838648D01*
X103337561Y-100589772D01*
X103308567Y-100421578D01*
X103337957Y-100354178D01*
X103377781Y-100366150D01*
X103413859Y-100350112D01*
X103378000Y-100221143D01*
X103342146Y-100088388D01*
X103378219Y-100076135D01*
X103444946Y-100070425D01*
X103450571Y-100044442D01*
X103514928Y-99999830D01*
X103684986Y-99998365D01*
X103712111Y-100001517D01*
X103948799Y-99989732D01*
X104115094Y-99900042D01*
X104166466Y-99777950D01*
X107006571Y-99777950D01*
X107062345Y-99890111D01*
X107184325Y-99923722D01*
X107288014Y-99874386D01*
X107354213Y-99840550D01*
X107369428Y-99916343D01*
X107395853Y-100022014D01*
X107423857Y-100039718D01*
X107447266Y-100107458D01*
X107469616Y-100291368D01*
X107488222Y-100562482D01*
X107499524Y-100856146D01*
X107523127Y-101557867D01*
X107554257Y-102151312D01*
X107592190Y-102629062D01*
X107636202Y-102983701D01*
X107685569Y-103207812D01*
X107737497Y-103293333D01*
X107792705Y-103376132D01*
X107804857Y-103464383D01*
X107836504Y-103570427D01*
X107921794Y-103566370D01*
X108003860Y-103559502D01*
X107991009Y-103645859D01*
X108000108Y-103742646D01*
X108095283Y-103887359D01*
X108288397Y-104095950D01*
X108423359Y-104227253D01*
X108702798Y-104483544D01*
X108893546Y-104632346D01*
X109002791Y-104675134D01*
X109037722Y-104613384D01*
X109005528Y-104448573D01*
X108970506Y-104339571D01*
X108872559Y-104091352D01*
X108764267Y-103869418D01*
X108724341Y-103802961D01*
X108625919Y-103597703D01*
X108557065Y-103354163D01*
X108553208Y-103331247D01*
X108487786Y-103090786D01*
X108376073Y-102825431D01*
X108332509Y-102744013D01*
X108273343Y-102634801D01*
X108228274Y-102524923D01*
X108194731Y-102392330D01*
X108170145Y-102214975D01*
X108151943Y-101970810D01*
X108137557Y-101637787D01*
X108124416Y-101193859D01*
X108116763Y-100893441D01*
X108104653Y-100364447D01*
X108099738Y-99955212D01*
X108102125Y-99800864D01*
X108959670Y-99800864D01*
X108987419Y-100290862D01*
X109002293Y-100457000D01*
X109031102Y-100763562D01*
X109060392Y-101081229D01*
X109069592Y-101182714D01*
X109110466Y-101471588D01*
X109181476Y-101807509D01*
X109274763Y-102167409D01*
X109382468Y-102528218D01*
X109496731Y-102866867D01*
X109609695Y-103160287D01*
X109713500Y-103385408D01*
X109800287Y-103519162D01*
X109862198Y-103538479D01*
X109869118Y-103529655D01*
X109936311Y-103538427D01*
X110065584Y-103631218D01*
X110228098Y-103778910D01*
X110395015Y-103952382D01*
X110537496Y-104122516D01*
X110626703Y-104260192D01*
X110642562Y-104310637D01*
X110671804Y-104732649D01*
X110700567Y-105054416D01*
X110727144Y-105258426D01*
X110740420Y-105314663D01*
X110826748Y-105377126D01*
X111000452Y-105423251D01*
X111048377Y-105429464D01*
X111229995Y-105450764D01*
X111334771Y-105467665D01*
X111342714Y-105470372D01*
X111352806Y-105431816D01*
X111352263Y-105428142D01*
X111354498Y-105373714D01*
X112304286Y-105373714D01*
X112340571Y-105410000D01*
X112376857Y-105373714D01*
X112340571Y-105337428D01*
X112304286Y-105373714D01*
X111354498Y-105373714D01*
X111356784Y-105318051D01*
X111425293Y-105243805D01*
X111578548Y-105198911D01*
X111837305Y-105176877D01*
X112173650Y-105171232D01*
X112371238Y-105145571D01*
X112476667Y-105079483D01*
X112479801Y-105072669D01*
X112576007Y-104985381D01*
X112632502Y-104974571D01*
X112753452Y-104940868D01*
X112952719Y-104853179D01*
X113152089Y-104749494D01*
X113383607Y-104629092D01*
X113523443Y-104581961D01*
X113600299Y-104600292D01*
X113618770Y-104622494D01*
X113669105Y-104674701D01*
X113682032Y-104597854D01*
X113720595Y-104466802D01*
X113754883Y-104430799D01*
X113796122Y-104442480D01*
X113783404Y-104499088D01*
X113773484Y-104593767D01*
X113856719Y-104592180D01*
X114038614Y-104493238D01*
X114135408Y-104429438D01*
X114300894Y-104290758D01*
X114368630Y-104175077D01*
X114365795Y-104148509D01*
X114383978Y-104023547D01*
X114487115Y-103895607D01*
X114626610Y-103818563D01*
X114668041Y-103813428D01*
X114759729Y-103755224D01*
X114771714Y-103704571D01*
X114830360Y-103610077D01*
X114887829Y-103595714D01*
X115005221Y-103547298D01*
X115086168Y-103486857D01*
X115352286Y-103486857D01*
X115388571Y-103523142D01*
X115424857Y-103486857D01*
X115388571Y-103450571D01*
X115352286Y-103486857D01*
X115086168Y-103486857D01*
X115169439Y-103424681D01*
X115224645Y-103373275D01*
X115442650Y-103373275D01*
X115452577Y-103378000D01*
X115518804Y-103326911D01*
X115533714Y-103305428D01*
X115552207Y-103237582D01*
X115542280Y-103232857D01*
X115476053Y-103283946D01*
X115461143Y-103305428D01*
X115442650Y-103373275D01*
X115224645Y-103373275D01*
X115249863Y-103349794D01*
X115419450Y-103193961D01*
X115563688Y-103084486D01*
X115607109Y-103061154D01*
X115740766Y-102942151D01*
X115779255Y-102762450D01*
X115762470Y-102691175D01*
X115716814Y-102625820D01*
X115628054Y-102637871D01*
X115518848Y-102690160D01*
X115376986Y-102779243D01*
X115314242Y-102849208D01*
X115314105Y-102850842D01*
X115278907Y-102951135D01*
X115225597Y-103051428D01*
X115158920Y-103137838D01*
X115134845Y-103093312D01*
X115134571Y-103087714D01*
X115117476Y-103026592D01*
X115063366Y-103093665D01*
X115056187Y-103105857D01*
X114928535Y-103212083D01*
X114837199Y-103232857D01*
X114692329Y-103285104D01*
X114538423Y-103411831D01*
X114529927Y-103421489D01*
X114293907Y-103590415D01*
X114116122Y-103634570D01*
X113943583Y-103654408D01*
X113850105Y-103671013D01*
X113846428Y-103672724D01*
X113773857Y-103701767D01*
X113563489Y-103792423D01*
X113468426Y-103905750D01*
X113465428Y-103930050D01*
X113426114Y-104021866D01*
X113329032Y-103999814D01*
X113249945Y-103924973D01*
X113169619Y-103859515D01*
X113069997Y-103882905D01*
X112984794Y-103934804D01*
X112845991Y-104005079D01*
X112766273Y-104009320D01*
X112675182Y-104000829D01*
X112550824Y-104033980D01*
X112419327Y-104062855D01*
X112376857Y-104035768D01*
X112322307Y-103991049D01*
X112208764Y-103998707D01*
X112119978Y-104046117D01*
X112024104Y-104067371D01*
X111870234Y-104056957D01*
X111706125Y-104057430D01*
X111616199Y-104101542D01*
X111539313Y-104153570D01*
X111471570Y-104087627D01*
X111435080Y-103930302D01*
X111433429Y-103881717D01*
X111410056Y-103730746D01*
X111354161Y-103668285D01*
X111245983Y-103626750D01*
X111094653Y-103526492D01*
X111090374Y-103523142D01*
X110992071Y-103426789D01*
X110990851Y-103379104D01*
X111001196Y-103378000D01*
X111003516Y-103333693D01*
X110916874Y-103217772D01*
X110767109Y-103062351D01*
X110534110Y-102801851D01*
X110409795Y-102561069D01*
X110385392Y-102463637D01*
X110319925Y-102260948D01*
X115970460Y-102260948D01*
X115978841Y-102324819D01*
X116049454Y-102385054D01*
X116140510Y-102344703D01*
X116209701Y-102234054D01*
X116223143Y-102149914D01*
X116266400Y-101997500D01*
X116300592Y-101950722D01*
X116328645Y-101871230D01*
X116264307Y-101829628D01*
X116176108Y-101834342D01*
X116150571Y-101957370D01*
X116110004Y-102106741D01*
X116042938Y-102170060D01*
X115970460Y-102260948D01*
X110319925Y-102260948D01*
X110309294Y-102228035D01*
X110192071Y-102024965D01*
X110175695Y-102005583D01*
X110099464Y-101906389D01*
X110112420Y-101885132D01*
X110127143Y-101892514D01*
X110197273Y-101924424D01*
X110167987Y-101871386D01*
X110134944Y-101829891D01*
X110051144Y-101754819D01*
X114046000Y-101754819D01*
X114087210Y-101870191D01*
X114094381Y-101878190D01*
X114172101Y-101895407D01*
X114180257Y-101889076D01*
X114170242Y-101814518D01*
X114131876Y-101765704D01*
X114058812Y-101724793D01*
X114046000Y-101754819D01*
X110051144Y-101754819D01*
X110041647Y-101746312D01*
X109996977Y-101742261D01*
X109931382Y-101722675D01*
X109865744Y-101653300D01*
X109839849Y-101600000D01*
X109982000Y-101600000D01*
X110018286Y-101636285D01*
X116223143Y-101636285D01*
X116249696Y-101696020D01*
X116271524Y-101684666D01*
X116280209Y-101598541D01*
X116271524Y-101587904D01*
X116228380Y-101597866D01*
X116223143Y-101636285D01*
X110018286Y-101636285D01*
X110054571Y-101600000D01*
X110018286Y-101563714D01*
X109982000Y-101600000D01*
X109839849Y-101600000D01*
X109818918Y-101556918D01*
X109801582Y-101412793D01*
X109814022Y-101192331D01*
X109856522Y-100866942D01*
X109874757Y-100747285D01*
X109874059Y-100603793D01*
X109830760Y-100547714D01*
X109789109Y-100592281D01*
X109800571Y-100620285D01*
X109793678Y-100687108D01*
X109766548Y-100692857D01*
X109724859Y-100629427D01*
X109719124Y-100435201D01*
X109736001Y-100221143D01*
X109754403Y-99955106D01*
X111529691Y-99955106D01*
X111541908Y-100107655D01*
X111569974Y-100351955D01*
X111597072Y-100546547D01*
X111610762Y-100620285D01*
X111646667Y-100772703D01*
X111680852Y-100923877D01*
X111766732Y-101089011D01*
X111954068Y-101199255D01*
X112104714Y-101242647D01*
X112195428Y-101273428D01*
X112293485Y-101299962D01*
X112298238Y-101300643D01*
X112410236Y-101355626D01*
X112417217Y-101362170D01*
X112517131Y-101380599D01*
X112544530Y-101368361D01*
X112547938Y-101313092D01*
X112542131Y-101309714D01*
X112884857Y-101309714D01*
X112921143Y-101346000D01*
X112948542Y-101318600D01*
X116150571Y-101318600D01*
X116197152Y-101409261D01*
X116230907Y-101418571D01*
X116278646Y-101365489D01*
X116268024Y-101305945D01*
X116261999Y-101230571D01*
X116291531Y-101234557D01*
X116376161Y-101225315D01*
X116430340Y-101144933D01*
X116413592Y-101076830D01*
X116332704Y-101078608D01*
X116230908Y-101159402D01*
X116159329Y-101272217D01*
X116150571Y-101318600D01*
X112948542Y-101318600D01*
X112957428Y-101309714D01*
X112921143Y-101273428D01*
X112884857Y-101309714D01*
X112542131Y-101309714D01*
X112465636Y-101265221D01*
X112326283Y-101162964D01*
X112210970Y-101007333D01*
X113271905Y-101007333D01*
X113281867Y-101050477D01*
X113320286Y-101055714D01*
X113380020Y-101029161D01*
X113368667Y-101007333D01*
X113282541Y-100998648D01*
X113271905Y-101007333D01*
X112210970Y-101007333D01*
X112201150Y-100994081D01*
X112197365Y-100986887D01*
X112126601Y-100886771D01*
X113394346Y-100886771D01*
X113439256Y-100865822D01*
X113464020Y-100843328D01*
X116326816Y-100843328D01*
X116346417Y-100951343D01*
X116423322Y-100973239D01*
X116584688Y-100911372D01*
X116662175Y-100872422D01*
X116823078Y-100750305D01*
X116875523Y-100582472D01*
X116876286Y-100550133D01*
X116856855Y-100385502D01*
X116813447Y-100299729D01*
X116775537Y-100207114D01*
X116775707Y-100059589D01*
X116784890Y-99952029D01*
X116765736Y-99972207D01*
X116716151Y-100112285D01*
X116635328Y-100296420D01*
X116547805Y-100415875D01*
X116536176Y-100424320D01*
X116456624Y-100538494D01*
X116440857Y-100628174D01*
X116418126Y-100730438D01*
X116383837Y-100738754D01*
X116337736Y-100768041D01*
X116326816Y-100843328D01*
X113464020Y-100843328D01*
X113515939Y-100796170D01*
X113667905Y-100655067D01*
X113855303Y-100483503D01*
X113894453Y-100447962D01*
X114028482Y-100314842D01*
X114094661Y-100225481D01*
X114095230Y-100209896D01*
X114022964Y-100227311D01*
X113880589Y-100305125D01*
X113712176Y-100414134D01*
X113561797Y-100525133D01*
X113473524Y-100608917D01*
X113465428Y-100627241D01*
X113441935Y-100734336D01*
X113416544Y-100808378D01*
X113394346Y-100886771D01*
X112126601Y-100886771D01*
X112091337Y-100836882D01*
X111985376Y-100766230D01*
X111975851Y-100765428D01*
X111875158Y-100707486D01*
X111860817Y-100546689D01*
X111867372Y-100511428D01*
X111892157Y-100387783D01*
X111916039Y-100262513D01*
X111959958Y-100094803D01*
X111996028Y-100010081D01*
X112022704Y-99900973D01*
X112043858Y-99695739D01*
X112053104Y-99495428D01*
X116658571Y-99495428D01*
X116694857Y-99531714D01*
X116731143Y-99495428D01*
X116694857Y-99459142D01*
X116658571Y-99495428D01*
X112053104Y-99495428D01*
X112053210Y-99493141D01*
X112062220Y-99350285D01*
X116440857Y-99350285D01*
X116456384Y-99447111D01*
X116469378Y-99459142D01*
X116516173Y-99402395D01*
X116539672Y-99350285D01*
X116541181Y-99256838D01*
X116511151Y-99241428D01*
X116448776Y-99300243D01*
X116440857Y-99350285D01*
X112062220Y-99350285D01*
X112073196Y-99176289D01*
X112130318Y-98959790D01*
X112246708Y-98799630D01*
X112444499Y-98651798D01*
X112490813Y-98622880D01*
X112640953Y-98514573D01*
X112673410Y-98455141D01*
X112607574Y-98445730D01*
X112462832Y-98487488D01*
X112258575Y-98581562D01*
X112212875Y-98606428D01*
X112028537Y-98733577D01*
X111884623Y-98902915D01*
X111746237Y-99158193D01*
X111710109Y-99236798D01*
X111594124Y-99517791D01*
X111538059Y-99736130D01*
X111529691Y-99955106D01*
X109754403Y-99955106D01*
X109755365Y-99941201D01*
X109741400Y-99788896D01*
X109701736Y-99749428D01*
X109654301Y-99683736D01*
X109626497Y-99511301D01*
X109617572Y-99269085D01*
X109626773Y-98994049D01*
X109653347Y-98723154D01*
X109696542Y-98493362D01*
X109729370Y-98392383D01*
X109860268Y-98162986D01*
X110046291Y-97934805D01*
X110249113Y-97747633D01*
X110430408Y-97641264D01*
X110460536Y-97633222D01*
X110507774Y-97608571D01*
X110707714Y-97608571D01*
X110744000Y-97644857D01*
X110780286Y-97608571D01*
X110744000Y-97572285D01*
X110707714Y-97608571D01*
X110507774Y-97608571D01*
X110579502Y-97571141D01*
X110607929Y-97516863D01*
X110623662Y-97374993D01*
X110626071Y-97355427D01*
X110694395Y-97305851D01*
X110796487Y-97300998D01*
X110924771Y-97279551D01*
X110959773Y-97224924D01*
X111007717Y-97119348D01*
X111107360Y-97047257D01*
X111199268Y-97046352D01*
X111214954Y-97063055D01*
X111285144Y-97062047D01*
X111402037Y-96973089D01*
X111410704Y-96964241D01*
X111513143Y-96847362D01*
X111516666Y-96780935D01*
X111434461Y-96719315D01*
X111713734Y-96719315D01*
X111741857Y-96704553D01*
X111836730Y-96653335D01*
X111868463Y-96716708D01*
X111871271Y-96783257D01*
X111873686Y-96955428D01*
X111999460Y-96805040D01*
X112157035Y-96672719D01*
X112287332Y-96612263D01*
X112411868Y-96601980D01*
X112449428Y-96631484D01*
X112508484Y-96669387D01*
X112596510Y-96664769D01*
X112695550Y-96668722D01*
X112701084Y-96705222D01*
X112724649Y-96760013D01*
X112803112Y-96774000D01*
X112884586Y-96737714D01*
X113465428Y-96737714D01*
X113501714Y-96774000D01*
X113538000Y-96737714D01*
X113501714Y-96701428D01*
X113465428Y-96737714D01*
X112884586Y-96737714D01*
X112941445Y-96712391D01*
X112993714Y-96628857D01*
X113047107Y-96527716D01*
X113276181Y-96527716D01*
X113279546Y-96556285D01*
X113335590Y-96509190D01*
X113429143Y-96411143D01*
X113511389Y-96306170D01*
X113509278Y-96302285D01*
X115642571Y-96302285D01*
X115678857Y-96338571D01*
X115715143Y-96302285D01*
X115678857Y-96266000D01*
X115642571Y-96302285D01*
X113509278Y-96302285D01*
X113491120Y-96268883D01*
X113448855Y-96266000D01*
X113342161Y-96326895D01*
X113299258Y-96411143D01*
X113276181Y-96527716D01*
X113047107Y-96527716D01*
X113055577Y-96511672D01*
X113099697Y-96483714D01*
X113185173Y-96431902D01*
X113196210Y-96319807D01*
X113131637Y-96212440D01*
X113104909Y-96194679D01*
X112958910Y-96165347D01*
X112853834Y-96234819D01*
X112690789Y-96311779D01*
X112576651Y-96293339D01*
X112370455Y-96254569D01*
X112183919Y-96303121D01*
X111975457Y-96453647D01*
X111885846Y-96536768D01*
X111759599Y-96663113D01*
X111713734Y-96719315D01*
X111434461Y-96719315D01*
X111431261Y-96716917D01*
X111297817Y-96672164D01*
X111182998Y-96744512D01*
X111095627Y-96815384D01*
X111070571Y-96812642D01*
X111025631Y-96823711D01*
X110916970Y-96911471D01*
X110911744Y-96916315D01*
X110749759Y-97040202D01*
X110655352Y-97051728D01*
X110635143Y-96991714D01*
X110591869Y-96922296D01*
X110470917Y-96961108D01*
X110285588Y-97103290D01*
X110256484Y-97130026D01*
X110100284Y-97253688D01*
X109978471Y-97311560D01*
X109951955Y-97310638D01*
X109870705Y-97350688D01*
X109753323Y-97493431D01*
X109619320Y-97707506D01*
X109488206Y-97961553D01*
X109379489Y-98224211D01*
X109374143Y-98239446D01*
X109269618Y-98510546D01*
X109143383Y-98799210D01*
X109109626Y-98869836D01*
X109019013Y-99116372D01*
X108969614Y-99418042D01*
X108959670Y-99800864D01*
X108102125Y-99800864D01*
X108104607Y-99640426D01*
X108121852Y-99394777D01*
X108154063Y-99192955D01*
X108203830Y-99009649D01*
X108273744Y-98819548D01*
X108347132Y-98642714D01*
X108359451Y-98536318D01*
X108321451Y-98515714D01*
X108181431Y-98572471D01*
X108040418Y-98704006D01*
X107955806Y-98852215D01*
X107950000Y-98891763D01*
X107900952Y-99011033D01*
X107783411Y-99165009D01*
X107641780Y-99305081D01*
X107520462Y-99382642D01*
X107498000Y-99386571D01*
X107389239Y-99435397D01*
X107268267Y-99545367D01*
X107189236Y-99661715D01*
X107182479Y-99705671D01*
X107180436Y-99746085D01*
X107170058Y-99731285D01*
X107086216Y-99677192D01*
X107014722Y-99731944D01*
X107006571Y-99777950D01*
X104166466Y-99777950D01*
X104176286Y-99754612D01*
X104234983Y-99685660D01*
X104285143Y-99676857D01*
X104381683Y-99635406D01*
X104394000Y-99600002D01*
X104440897Y-99560946D01*
X104484714Y-99577647D01*
X104528508Y-99587237D01*
X104475828Y-99509359D01*
X104416288Y-99415525D01*
X104470340Y-99387375D01*
X104512114Y-99386224D01*
X104644237Y-99339321D01*
X104822291Y-99221025D01*
X104905945Y-99150367D01*
X105214191Y-98905552D01*
X105544979Y-98731438D01*
X105708332Y-98667989D01*
X105826815Y-98602869D01*
X105896199Y-98487467D01*
X105940162Y-98278186D01*
X105947024Y-98228533D01*
X105954555Y-98189142D01*
X108458000Y-98189142D01*
X108494286Y-98225428D01*
X108530571Y-98189142D01*
X108494286Y-98152857D01*
X108458000Y-98189142D01*
X105954555Y-98189142D01*
X105985377Y-98027952D01*
X106031123Y-97910517D01*
X106059429Y-97896562D01*
X106178837Y-97911252D01*
X106289572Y-97853077D01*
X106327761Y-97758626D01*
X106323874Y-97745087D01*
X106344972Y-97627455D01*
X106447038Y-97488914D01*
X106478113Y-97463428D01*
X106861428Y-97463428D01*
X106897714Y-97499714D01*
X106934000Y-97463428D01*
X106897714Y-97427142D01*
X106861428Y-97463428D01*
X106478113Y-97463428D01*
X106583185Y-97377257D01*
X106706530Y-97340278D01*
X106718206Y-97343116D01*
X106827823Y-97315634D01*
X106925553Y-97233619D01*
X107103333Y-97233619D01*
X107113295Y-97276762D01*
X107151714Y-97282000D01*
X107211449Y-97255447D01*
X107200095Y-97233619D01*
X107113970Y-97224933D01*
X107103333Y-97233619D01*
X106925553Y-97233619D01*
X106959890Y-97204804D01*
X106965197Y-97198651D01*
X107124584Y-97044039D01*
X107160432Y-97015904D01*
X107829048Y-97015904D01*
X107839009Y-97059048D01*
X107877428Y-97064285D01*
X107937163Y-97037733D01*
X107925809Y-97015904D01*
X107839684Y-97007219D01*
X107829048Y-97015904D01*
X107160432Y-97015904D01*
X107320859Y-96889996D01*
X107772961Y-96889996D01*
X107825795Y-96913261D01*
X107932136Y-96831331D01*
X107944638Y-96816746D01*
X107987265Y-96707321D01*
X107957165Y-96669571D01*
X107872370Y-96688908D01*
X107805945Y-96771967D01*
X107772961Y-96889996D01*
X107320859Y-96889996D01*
X107333118Y-96880375D01*
X107387075Y-96843537D01*
X107551095Y-96723916D01*
X107648045Y-96630210D01*
X107659218Y-96606431D01*
X107704994Y-96579624D01*
X107730236Y-96591304D01*
X107836545Y-96594234D01*
X107967167Y-96529734D01*
X108074999Y-96433331D01*
X108098910Y-96374857D01*
X108240286Y-96374857D01*
X108276571Y-96411143D01*
X108312857Y-96374857D01*
X108276571Y-96338571D01*
X108240286Y-96374857D01*
X108098910Y-96374857D01*
X108112939Y-96340551D01*
X108098869Y-96313269D01*
X108091547Y-96302285D01*
X108385428Y-96302285D01*
X108421714Y-96338571D01*
X108458000Y-96302285D01*
X108421714Y-96266000D01*
X108385428Y-96302285D01*
X108091547Y-96302285D01*
X108032526Y-96213759D01*
X108033519Y-96147098D01*
X108093643Y-96156216D01*
X108207831Y-96160914D01*
X108305503Y-96124793D01*
X108428046Y-96087566D01*
X108476052Y-96138726D01*
X108527209Y-96190266D01*
X108644322Y-96154233D01*
X108681477Y-96135273D01*
X108953796Y-95983946D01*
X109139781Y-95854605D01*
X109274000Y-95721714D01*
X109401429Y-95721714D01*
X109437714Y-95758000D01*
X109474000Y-95721714D01*
X109437714Y-95685428D01*
X109401429Y-95721714D01*
X109274000Y-95721714D01*
X109285674Y-95710156D01*
X109411011Y-95550089D01*
X109442555Y-95512174D01*
X109716660Y-95512174D01*
X109728000Y-95540285D01*
X109793213Y-95609517D01*
X109804854Y-95612857D01*
X109836025Y-95556709D01*
X109836857Y-95540285D01*
X109781068Y-95470503D01*
X109760003Y-95467714D01*
X109716660Y-95512174D01*
X109442555Y-95512174D01*
X109570110Y-95358857D01*
X109691714Y-95358857D01*
X109728000Y-95395142D01*
X109764286Y-95358857D01*
X109728000Y-95322571D01*
X109691714Y-95358857D01*
X109570110Y-95358857D01*
X109572646Y-95355810D01*
X109710181Y-95265640D01*
X109864804Y-95254056D01*
X109884762Y-95256502D01*
X109955638Y-95207838D01*
X109997225Y-95147645D01*
X110114425Y-95056876D01*
X110234422Y-95032285D01*
X110412791Y-94992236D01*
X110506344Y-94933003D01*
X110520284Y-94923428D01*
X111578571Y-94923428D01*
X111614857Y-94959714D01*
X111651143Y-94923428D01*
X111614857Y-94887142D01*
X111578571Y-94923428D01*
X110520284Y-94923428D01*
X110657215Y-94829380D01*
X110765527Y-94782969D01*
X110890397Y-94717811D01*
X110925429Y-94664538D01*
X110984281Y-94604469D01*
X111034286Y-94596857D01*
X111125931Y-94625923D01*
G37*
X111125931Y-94625923D02*
X111134549Y-94651285D01*
X111147778Y-94819650D01*
X111260871Y-94885584D01*
X111292569Y-94887143D01*
X111395111Y-94862214D01*
X111402272Y-94822870D01*
X111415812Y-94758808D01*
X111523338Y-94727819D01*
X111677046Y-94731960D01*
X111829131Y-94773289D01*
X111881056Y-94802255D01*
X112010818Y-94868973D01*
X112069723Y-94828825D01*
X112069930Y-94828210D01*
X112141284Y-94755078D01*
X112237174Y-94749801D01*
X112287887Y-94810924D01*
X112286143Y-94832714D01*
X112334216Y-94906643D01*
X112458086Y-94945476D01*
X112617267Y-94928342D01*
X112620556Y-94923428D01*
X112739714Y-94923428D01*
X112776000Y-94959714D01*
X112812286Y-94923428D01*
X112776000Y-94887142D01*
X112739714Y-94923428D01*
X112620556Y-94923428D01*
X112684793Y-94827484D01*
X112774869Y-94713981D01*
X112982470Y-94656972D01*
X112985686Y-94656592D01*
X113159203Y-94648349D01*
X113261301Y-94699329D01*
X113345583Y-94843556D01*
X113371659Y-94901584D01*
X113482504Y-95096733D01*
X113618909Y-95183401D01*
X113810143Y-95196924D01*
X113894382Y-95234432D01*
X113900857Y-95258063D01*
X113963623Y-95304518D01*
X114104701Y-95322571D01*
X114310701Y-95360575D01*
X114449415Y-95429120D01*
X114615654Y-95515153D01*
X114724522Y-95537977D01*
X114901670Y-95586866D01*
X115136125Y-95708786D01*
X115383198Y-95873505D01*
X115598197Y-96050795D01*
X115736431Y-96210424D01*
X115747150Y-96229714D01*
X115818998Y-96345872D01*
X115856958Y-96356220D01*
X115858633Y-96342200D01*
X115879230Y-96276160D01*
X115950393Y-96327079D01*
X115999832Y-96417784D01*
X115932250Y-96488115D01*
X115867851Y-96554047D01*
X115917174Y-96628300D01*
X115964863Y-96666516D01*
X116093412Y-96727398D01*
X116149836Y-96702618D01*
X116212970Y-96712266D01*
X116329274Y-96826655D01*
X116482290Y-97023176D01*
X116655559Y-97279220D01*
X116832623Y-97572178D01*
X116975789Y-97837208D01*
X117107340Y-98105434D01*
X117257964Y-98427327D01*
X117415656Y-98775357D01*
X117568407Y-99121994D01*
X117704211Y-99439709D01*
X117811061Y-99700972D01*
X117876950Y-99878254D01*
X117892286Y-99938538D01*
X117922967Y-100042955D01*
X117999568Y-100217712D01*
X118029931Y-100279007D01*
X118115878Y-100519547D01*
X118163587Y-100800591D01*
X118171414Y-101076294D01*
X118137713Y-101300812D01*
X118070898Y-101420908D01*
X117981683Y-101563517D01*
X117964857Y-101657600D01*
X117918092Y-101825409D01*
X117837857Y-101949602D01*
X117760338Y-102065710D01*
X117796753Y-102122871D01*
X117801571Y-102124650D01*
X117889698Y-102193125D01*
X117863601Y-102254435D01*
X117749560Y-102253910D01*
X117625521Y-102275291D01*
X117544423Y-102432633D01*
X117505889Y-102727065D01*
X117503462Y-102991306D01*
X117500807Y-103211899D01*
X117474812Y-103315563D01*
X117417239Y-103329725D01*
X117403227Y-103325016D01*
X117332742Y-103316316D01*
X117356553Y-103398149D01*
X117369232Y-103422443D01*
X117415275Y-103564515D01*
X117430662Y-103726705D01*
X117416511Y-103859092D01*
X117373942Y-103911754D01*
X117358383Y-103906242D01*
X117327590Y-103938417D01*
X117338576Y-104069034D01*
X117340111Y-104076492D01*
X117348461Y-104264845D01*
X117310023Y-104394000D01*
X117262711Y-104440993D01*
X117260051Y-104364041D01*
X117269328Y-104301807D01*
X117273491Y-104169733D01*
X117234605Y-104142804D01*
X117184920Y-104239044D01*
X117166571Y-104390518D01*
X117128816Y-104562368D01*
X117053114Y-104639723D01*
X116977622Y-104710958D01*
X116983899Y-104754844D01*
X116988208Y-104868655D01*
X116949310Y-104973725D01*
X116839169Y-105082114D01*
X116701790Y-105078684D01*
X116546288Y-105081984D01*
X116489256Y-105150601D01*
X116394348Y-105250462D01*
X116335660Y-105264857D01*
X116238394Y-105326900D01*
X116179286Y-105450614D01*
X116110457Y-105585151D01*
X116032761Y-105598034D01*
X115949481Y-105618370D01*
X115932857Y-105697379D01*
X115889631Y-105848222D01*
X115788707Y-105973371D01*
X115673214Y-106028071D01*
X115625508Y-106016311D01*
X115582140Y-106013643D01*
X115599356Y-106051930D01*
X115592687Y-106123766D01*
X115537997Y-106135714D01*
X115439060Y-106191928D01*
X115424857Y-106244571D01*
X115382931Y-106341104D01*
X115347102Y-106353428D01*
X115236067Y-106400079D01*
X115163573Y-106459202D01*
X115033261Y-106529364D01*
X114956906Y-106526259D01*
X114828580Y-106535219D01*
X114671911Y-106608169D01*
X114518203Y-106679531D01*
X114410250Y-106680861D01*
X114351854Y-106686386D01*
X114352630Y-106719826D01*
X114297633Y-106781119D01*
X114108982Y-106828716D01*
X113797677Y-106860804D01*
X113411000Y-106875089D01*
X113222567Y-106892101D01*
X113113458Y-106929443D01*
X113102571Y-106947412D01*
X113057570Y-106982219D01*
X113030000Y-106970285D01*
X112963161Y-106976820D01*
X112957428Y-107003671D01*
X112897657Y-107049487D01*
X112776000Y-107036372D01*
X112633482Y-107027071D01*
X112594571Y-107071275D01*
X112541145Y-107140014D01*
X112421796Y-107145170D01*
X112297922Y-107092847D01*
X112247152Y-107036734D01*
X112136772Y-106953832D01*
X111950209Y-106900870D01*
X111919209Y-106897255D01*
X111729785Y-106872500D01*
X111607892Y-106843615D01*
X111598949Y-106839328D01*
X111496427Y-106839343D01*
X111360857Y-106880590D01*
X111100719Y-106950292D01*
X110842757Y-106959331D01*
X110636198Y-106909969D01*
X110549553Y-106843285D01*
X110439623Y-106740170D01*
X110372886Y-106716285D01*
X110276156Y-106657877D01*
X110244277Y-106602828D01*
X110174623Y-106526271D01*
X110132670Y-106531441D01*
X110040450Y-106520294D01*
X110012087Y-106488542D01*
X110002314Y-106437644D01*
X110043358Y-106455355D01*
X110118205Y-106463480D01*
X110127143Y-106438047D01*
X110079223Y-106348953D01*
X109983120Y-106326047D01*
X109910319Y-106378259D01*
X109903699Y-106410134D01*
X109885146Y-106477702D01*
X109861407Y-106444267D01*
X109767596Y-106386409D01*
X109653540Y-106396673D01*
X109466063Y-106385152D01*
X109240049Y-106254930D01*
X109235410Y-106251405D01*
X109058752Y-106133547D01*
X108916398Y-106067183D01*
X108886578Y-106061921D01*
X108782239Y-106012644D01*
X108621895Y-105887097D01*
X108499674Y-105771636D01*
X108335918Y-105613206D01*
X108212809Y-105508211D01*
X108168566Y-105482571D01*
X108103820Y-105430446D01*
X107973894Y-105292325D01*
X107887616Y-105192285D01*
X110562571Y-105192285D01*
X110589124Y-105252020D01*
X110610952Y-105240666D01*
X110619638Y-105154541D01*
X110610952Y-105143904D01*
X110567809Y-105153866D01*
X110562571Y-105192285D01*
X107887616Y-105192285D01*
X107804225Y-105095593D01*
X107794144Y-105083428D01*
X109691714Y-105083428D01*
X109728000Y-105119714D01*
X109764286Y-105083428D01*
X109728000Y-105047142D01*
X109691714Y-105083428D01*
X107794144Y-105083428D01*
X107764035Y-105047099D01*
X107732335Y-105010857D01*
X110490000Y-105010857D01*
X110526286Y-105047142D01*
X110562571Y-105010857D01*
X110526286Y-104974571D01*
X110490000Y-105010857D01*
X107732335Y-105010857D01*
X107577017Y-104833290D01*
X107410175Y-104666155D01*
X107295223Y-104577031D01*
X107283152Y-104571903D01*
X107197329Y-104485434D01*
X107108484Y-104310143D01*
X107032877Y-104095489D01*
X106986767Y-103890934D01*
X106986414Y-103745937D01*
X107001941Y-103716459D01*
X107007441Y-103626437D01*
X106972804Y-103446377D01*
X106911483Y-103221125D01*
X106836930Y-102995530D01*
X106762599Y-102814441D01*
X106704371Y-102724423D01*
X106669144Y-102635681D01*
X106628634Y-102444121D01*
X106588586Y-102191649D01*
X106554743Y-101920172D01*
X106532852Y-101671594D01*
X106528657Y-101487821D01*
X106530850Y-101458663D01*
X106527824Y-101335849D01*
X106496621Y-101310920D01*
X106436266Y-101274688D01*
X106366905Y-101113191D01*
X106320540Y-100946857D01*
X106307706Y-100836474D01*
X106300728Y-100729143D01*
X106426000Y-100729143D01*
X106462286Y-100765428D01*
X106498571Y-100729143D01*
X106462286Y-100692857D01*
X106426000Y-100729143D01*
X106300728Y-100729143D01*
X106294724Y-100636795D01*
X106289070Y-100511428D01*
X106275176Y-100148571D01*
X106172663Y-100384428D01*
X106085155Y-100541213D01*
X106004009Y-100618563D01*
X105994075Y-100620285D01*
X105925757Y-100678649D01*
X105918000Y-100724252D01*
X105856961Y-100823763D01*
X105754714Y-100877979D01*
X105564900Y-100967133D01*
X105467331Y-101036633D01*
X105309979Y-101108787D01*
X105075732Y-101095344D01*
X104857370Y-101079822D01*
X104751789Y-101136485D01*
X104679165Y-101190605D01*
X104590739Y-101140992D01*
X104477754Y-101092513D01*
X104326091Y-101137679D01*
X104296020Y-101152804D01*
X104178120Y-101239744D01*
X104158444Y-101312080D01*
X104159241Y-101313038D01*
X104144141Y-101322309D01*
X104037759Y-101265055D01*
X104013000Y-101249791D01*
X103878795Y-101185823D01*
X103814441Y-101194599D01*
X103813429Y-101201737D01*
X103778739Y-101258467D01*
X103692787Y-101218350D01*
X103582751Y-101106658D01*
X103475806Y-100948666D01*
X103423013Y-100838648D01*
X103337561Y-100589772D01*
X103308567Y-100421578D01*
X103337957Y-100354178D01*
X103377781Y-100366150D01*
X103413859Y-100350112D01*
X103378000Y-100221143D01*
X103342146Y-100088388D01*
X103378219Y-100076135D01*
X103444946Y-100070425D01*
X103450571Y-100044442D01*
X103514928Y-99999830D01*
X103684986Y-99998365D01*
X103712111Y-100001517D01*
X103948799Y-99989732D01*
X104115094Y-99900042D01*
X104166466Y-99777950D01*
X107006571Y-99777950D01*
X107062345Y-99890111D01*
X107184325Y-99923722D01*
X107288014Y-99874386D01*
X107354213Y-99840550D01*
X107369428Y-99916343D01*
X107395853Y-100022014D01*
X107423857Y-100039718D01*
X107447266Y-100107458D01*
X107469616Y-100291368D01*
X107488222Y-100562482D01*
X107499524Y-100856146D01*
X107523127Y-101557867D01*
X107554257Y-102151312D01*
X107592190Y-102629062D01*
X107636202Y-102983701D01*
X107685569Y-103207812D01*
X107737497Y-103293333D01*
X107792705Y-103376132D01*
X107804857Y-103464383D01*
X107836504Y-103570427D01*
X107921794Y-103566370D01*
X108003860Y-103559502D01*
X107991009Y-103645859D01*
X108000108Y-103742646D01*
X108095283Y-103887359D01*
X108288397Y-104095950D01*
X108423359Y-104227253D01*
X108702798Y-104483544D01*
X108893546Y-104632346D01*
X109002791Y-104675134D01*
X109037722Y-104613384D01*
X109005528Y-104448573D01*
X108970506Y-104339571D01*
X108872559Y-104091352D01*
X108764267Y-103869418D01*
X108724341Y-103802961D01*
X108625919Y-103597703D01*
X108557065Y-103354163D01*
X108553208Y-103331247D01*
X108487786Y-103090786D01*
X108376073Y-102825431D01*
X108332509Y-102744013D01*
X108273343Y-102634801D01*
X108228274Y-102524923D01*
X108194731Y-102392330D01*
X108170145Y-102214975D01*
X108151943Y-101970810D01*
X108137557Y-101637787D01*
X108124416Y-101193859D01*
X108116763Y-100893441D01*
X108104653Y-100364447D01*
X108099738Y-99955212D01*
X108102125Y-99800864D01*
X108959670Y-99800864D01*
X108987419Y-100290862D01*
X109002293Y-100457000D01*
X109031102Y-100763562D01*
X109060392Y-101081229D01*
X109069592Y-101182714D01*
X109110466Y-101471588D01*
X109181476Y-101807509D01*
X109274763Y-102167409D01*
X109382468Y-102528218D01*
X109496731Y-102866867D01*
X109609695Y-103160287D01*
X109713500Y-103385408D01*
X109800287Y-103519162D01*
X109862198Y-103538479D01*
X109869118Y-103529655D01*
X109936311Y-103538427D01*
X110065584Y-103631218D01*
X110228098Y-103778910D01*
X110395015Y-103952382D01*
X110537496Y-104122516D01*
X110626703Y-104260192D01*
X110642562Y-104310637D01*
X110671804Y-104732649D01*
X110700567Y-105054416D01*
X110727144Y-105258426D01*
X110740420Y-105314663D01*
X110826748Y-105377126D01*
X111000452Y-105423251D01*
X111048377Y-105429464D01*
X111229995Y-105450764D01*
X111334771Y-105467665D01*
X111342714Y-105470372D01*
X111352806Y-105431816D01*
X111352263Y-105428142D01*
X111354498Y-105373714D01*
X112304286Y-105373714D01*
X112340571Y-105410000D01*
X112376857Y-105373714D01*
X112340571Y-105337428D01*
X112304286Y-105373714D01*
X111354498Y-105373714D01*
X111356784Y-105318051D01*
X111425293Y-105243805D01*
X111578548Y-105198911D01*
X111837305Y-105176877D01*
X112173650Y-105171232D01*
X112371238Y-105145571D01*
X112476667Y-105079483D01*
X112479801Y-105072669D01*
X112576007Y-104985381D01*
X112632502Y-104974571D01*
X112753452Y-104940868D01*
X112952719Y-104853179D01*
X113152089Y-104749494D01*
X113383607Y-104629092D01*
X113523443Y-104581961D01*
X113600299Y-104600292D01*
X113618770Y-104622494D01*
X113669105Y-104674701D01*
X113682032Y-104597854D01*
X113720595Y-104466802D01*
X113754883Y-104430799D01*
X113796122Y-104442480D01*
X113783404Y-104499088D01*
X113773484Y-104593767D01*
X113856719Y-104592180D01*
X114038614Y-104493238D01*
X114135408Y-104429438D01*
X114300894Y-104290758D01*
X114368630Y-104175077D01*
X114365795Y-104148509D01*
X114383978Y-104023547D01*
X114487115Y-103895607D01*
X114626610Y-103818563D01*
X114668041Y-103813428D01*
X114759729Y-103755224D01*
X114771714Y-103704571D01*
X114830360Y-103610077D01*
X114887829Y-103595714D01*
X115005221Y-103547298D01*
X115086168Y-103486857D01*
X115352286Y-103486857D01*
X115388571Y-103523142D01*
X115424857Y-103486857D01*
X115388571Y-103450571D01*
X115352286Y-103486857D01*
X115086168Y-103486857D01*
X115169439Y-103424681D01*
X115224645Y-103373275D01*
X115442650Y-103373275D01*
X115452577Y-103378000D01*
X115518804Y-103326911D01*
X115533714Y-103305428D01*
X115552207Y-103237582D01*
X115542280Y-103232857D01*
X115476053Y-103283946D01*
X115461143Y-103305428D01*
X115442650Y-103373275D01*
X115224645Y-103373275D01*
X115249863Y-103349794D01*
X115419450Y-103193961D01*
X115563688Y-103084486D01*
X115607109Y-103061154D01*
X115740766Y-102942151D01*
X115779255Y-102762450D01*
X115762470Y-102691175D01*
X115716814Y-102625820D01*
X115628054Y-102637871D01*
X115518848Y-102690160D01*
X115376986Y-102779243D01*
X115314242Y-102849208D01*
X115314105Y-102850842D01*
X115278907Y-102951135D01*
X115225597Y-103051428D01*
X115158920Y-103137838D01*
X115134845Y-103093312D01*
X115134571Y-103087714D01*
X115117476Y-103026592D01*
X115063366Y-103093665D01*
X115056187Y-103105857D01*
X114928535Y-103212083D01*
X114837199Y-103232857D01*
X114692329Y-103285104D01*
X114538423Y-103411831D01*
X114529927Y-103421489D01*
X114293907Y-103590415D01*
X114116122Y-103634570D01*
X113943583Y-103654408D01*
X113850105Y-103671013D01*
X113846428Y-103672724D01*
X113773857Y-103701767D01*
X113563489Y-103792423D01*
X113468426Y-103905750D01*
X113465428Y-103930050D01*
X113426114Y-104021866D01*
X113329032Y-103999814D01*
X113249945Y-103924973D01*
X113169619Y-103859515D01*
X113069997Y-103882905D01*
X112984794Y-103934804D01*
X112845991Y-104005079D01*
X112766273Y-104009320D01*
X112675182Y-104000829D01*
X112550824Y-104033980D01*
X112419327Y-104062855D01*
X112376857Y-104035768D01*
X112322307Y-103991049D01*
X112208764Y-103998707D01*
X112119978Y-104046117D01*
X112024104Y-104067371D01*
X111870234Y-104056957D01*
X111706125Y-104057430D01*
X111616199Y-104101542D01*
X111539313Y-104153570D01*
X111471570Y-104087627D01*
X111435080Y-103930302D01*
X111433429Y-103881717D01*
X111410056Y-103730746D01*
X111354161Y-103668285D01*
X111245983Y-103626750D01*
X111094653Y-103526492D01*
X111090374Y-103523142D01*
X110992071Y-103426789D01*
X110990851Y-103379104D01*
X111001196Y-103378000D01*
X111003516Y-103333693D01*
X110916874Y-103217772D01*
X110767109Y-103062351D01*
X110534110Y-102801851D01*
X110409795Y-102561069D01*
X110385392Y-102463637D01*
X110319925Y-102260948D01*
X115970460Y-102260948D01*
X115978841Y-102324819D01*
X116049454Y-102385054D01*
X116140510Y-102344703D01*
X116209701Y-102234054D01*
X116223143Y-102149914D01*
X116266400Y-101997500D01*
X116300592Y-101950722D01*
X116328645Y-101871230D01*
X116264307Y-101829628D01*
X116176108Y-101834342D01*
X116150571Y-101957370D01*
X116110004Y-102106741D01*
X116042938Y-102170060D01*
X115970460Y-102260948D01*
X110319925Y-102260948D01*
X110309294Y-102228035D01*
X110192071Y-102024965D01*
X110175695Y-102005583D01*
X110099464Y-101906389D01*
X110112420Y-101885132D01*
X110127143Y-101892514D01*
X110197273Y-101924424D01*
X110167987Y-101871386D01*
X110134944Y-101829891D01*
X110051144Y-101754819D01*
X114046000Y-101754819D01*
X114087210Y-101870191D01*
X114094381Y-101878190D01*
X114172101Y-101895407D01*
X114180257Y-101889076D01*
X114170242Y-101814518D01*
X114131876Y-101765704D01*
X114058812Y-101724793D01*
X114046000Y-101754819D01*
X110051144Y-101754819D01*
X110041647Y-101746312D01*
X109996977Y-101742261D01*
X109931382Y-101722675D01*
X109865744Y-101653300D01*
X109839849Y-101600000D01*
X109982000Y-101600000D01*
X110018286Y-101636285D01*
X116223143Y-101636285D01*
X116249696Y-101696020D01*
X116271524Y-101684666D01*
X116280209Y-101598541D01*
X116271524Y-101587904D01*
X116228380Y-101597866D01*
X116223143Y-101636285D01*
X110018286Y-101636285D01*
X110054571Y-101600000D01*
X110018286Y-101563714D01*
X109982000Y-101600000D01*
X109839849Y-101600000D01*
X109818918Y-101556918D01*
X109801582Y-101412793D01*
X109814022Y-101192331D01*
X109856522Y-100866942D01*
X109874757Y-100747285D01*
X109874059Y-100603793D01*
X109830760Y-100547714D01*
X109789109Y-100592281D01*
X109800571Y-100620285D01*
X109793678Y-100687108D01*
X109766548Y-100692857D01*
X109724859Y-100629427D01*
X109719124Y-100435201D01*
X109736001Y-100221143D01*
X109754403Y-99955106D01*
X111529691Y-99955106D01*
X111541908Y-100107655D01*
X111569974Y-100351955D01*
X111597072Y-100546547D01*
X111610762Y-100620285D01*
X111646667Y-100772703D01*
X111680852Y-100923877D01*
X111766732Y-101089011D01*
X111954068Y-101199255D01*
X112104714Y-101242647D01*
X112195428Y-101273428D01*
X112293485Y-101299962D01*
X112298238Y-101300643D01*
X112410236Y-101355626D01*
X112417217Y-101362170D01*
X112517131Y-101380599D01*
X112544530Y-101368361D01*
X112547938Y-101313092D01*
X112542131Y-101309714D01*
X112884857Y-101309714D01*
X112921143Y-101346000D01*
X112948542Y-101318600D01*
X116150571Y-101318600D01*
X116197152Y-101409261D01*
X116230907Y-101418571D01*
X116278646Y-101365489D01*
X116268024Y-101305945D01*
X116261999Y-101230571D01*
X116291531Y-101234557D01*
X116376161Y-101225315D01*
X116430340Y-101144933D01*
X116413592Y-101076830D01*
X116332704Y-101078608D01*
X116230908Y-101159402D01*
X116159329Y-101272217D01*
X116150571Y-101318600D01*
X112948542Y-101318600D01*
X112957428Y-101309714D01*
X112921143Y-101273428D01*
X112884857Y-101309714D01*
X112542131Y-101309714D01*
X112465636Y-101265221D01*
X112326283Y-101162964D01*
X112210970Y-101007333D01*
X113271905Y-101007333D01*
X113281867Y-101050477D01*
X113320286Y-101055714D01*
X113380020Y-101029161D01*
X113368667Y-101007333D01*
X113282541Y-100998648D01*
X113271905Y-101007333D01*
X112210970Y-101007333D01*
X112201150Y-100994081D01*
X112197365Y-100986887D01*
X112126601Y-100886771D01*
X113394346Y-100886771D01*
X113439256Y-100865822D01*
X113464020Y-100843328D01*
X116326816Y-100843328D01*
X116346417Y-100951343D01*
X116423322Y-100973239D01*
X116584688Y-100911372D01*
X116662175Y-100872422D01*
X116823078Y-100750305D01*
X116875523Y-100582472D01*
X116876286Y-100550133D01*
X116856855Y-100385502D01*
X116813447Y-100299729D01*
X116775537Y-100207114D01*
X116775707Y-100059589D01*
X116784890Y-99952029D01*
X116765736Y-99972207D01*
X116716151Y-100112285D01*
X116635328Y-100296420D01*
X116547805Y-100415875D01*
X116536176Y-100424320D01*
X116456624Y-100538494D01*
X116440857Y-100628174D01*
X116418126Y-100730438D01*
X116383837Y-100738754D01*
X116337736Y-100768041D01*
X116326816Y-100843328D01*
X113464020Y-100843328D01*
X113515939Y-100796170D01*
X113667905Y-100655067D01*
X113855303Y-100483503D01*
X113894453Y-100447962D01*
X114028482Y-100314842D01*
X114094661Y-100225481D01*
X114095230Y-100209896D01*
X114022964Y-100227311D01*
X113880589Y-100305125D01*
X113712176Y-100414134D01*
X113561797Y-100525133D01*
X113473524Y-100608917D01*
X113465428Y-100627241D01*
X113441935Y-100734336D01*
X113416544Y-100808378D01*
X113394346Y-100886771D01*
X112126601Y-100886771D01*
X112091337Y-100836882D01*
X111985376Y-100766230D01*
X111975851Y-100765428D01*
X111875158Y-100707486D01*
X111860817Y-100546689D01*
X111867372Y-100511428D01*
X111892157Y-100387783D01*
X111916039Y-100262513D01*
X111959958Y-100094803D01*
X111996028Y-100010081D01*
X112022704Y-99900973D01*
X112043858Y-99695739D01*
X112053104Y-99495428D01*
X116658571Y-99495428D01*
X116694857Y-99531714D01*
X116731143Y-99495428D01*
X116694857Y-99459142D01*
X116658571Y-99495428D01*
X112053104Y-99495428D01*
X112053210Y-99493141D01*
X112062220Y-99350285D01*
X116440857Y-99350285D01*
X116456384Y-99447111D01*
X116469378Y-99459142D01*
X116516173Y-99402395D01*
X116539672Y-99350285D01*
X116541181Y-99256838D01*
X116511151Y-99241428D01*
X116448776Y-99300243D01*
X116440857Y-99350285D01*
X112062220Y-99350285D01*
X112073196Y-99176289D01*
X112130318Y-98959790D01*
X112246708Y-98799630D01*
X112444499Y-98651798D01*
X112490813Y-98622880D01*
X112640953Y-98514573D01*
X112673410Y-98455141D01*
X112607574Y-98445730D01*
X112462832Y-98487488D01*
X112258575Y-98581562D01*
X112212875Y-98606428D01*
X112028537Y-98733577D01*
X111884623Y-98902915D01*
X111746237Y-99158193D01*
X111710109Y-99236798D01*
X111594124Y-99517791D01*
X111538059Y-99736130D01*
X111529691Y-99955106D01*
X109754403Y-99955106D01*
X109755365Y-99941201D01*
X109741400Y-99788896D01*
X109701736Y-99749428D01*
X109654301Y-99683736D01*
X109626497Y-99511301D01*
X109617572Y-99269085D01*
X109626773Y-98994049D01*
X109653347Y-98723154D01*
X109696542Y-98493362D01*
X109729370Y-98392383D01*
X109860268Y-98162986D01*
X110046291Y-97934805D01*
X110249113Y-97747633D01*
X110430408Y-97641264D01*
X110460536Y-97633222D01*
X110507774Y-97608571D01*
X110707714Y-97608571D01*
X110744000Y-97644857D01*
X110780286Y-97608571D01*
X110744000Y-97572285D01*
X110707714Y-97608571D01*
X110507774Y-97608571D01*
X110579502Y-97571141D01*
X110607929Y-97516863D01*
X110623662Y-97374993D01*
X110626071Y-97355427D01*
X110694395Y-97305851D01*
X110796487Y-97300998D01*
X110924771Y-97279551D01*
X110959773Y-97224924D01*
X111007717Y-97119348D01*
X111107360Y-97047257D01*
X111199268Y-97046352D01*
X111214954Y-97063055D01*
X111285144Y-97062047D01*
X111402037Y-96973089D01*
X111410704Y-96964241D01*
X111513143Y-96847362D01*
X111516666Y-96780935D01*
X111434461Y-96719315D01*
X111713734Y-96719315D01*
X111741857Y-96704553D01*
X111836730Y-96653335D01*
X111868463Y-96716708D01*
X111871271Y-96783257D01*
X111873686Y-96955428D01*
X111999460Y-96805040D01*
X112157035Y-96672719D01*
X112287332Y-96612263D01*
X112411868Y-96601980D01*
X112449428Y-96631484D01*
X112508484Y-96669387D01*
X112596510Y-96664769D01*
X112695550Y-96668722D01*
X112701084Y-96705222D01*
X112724649Y-96760013D01*
X112803112Y-96774000D01*
X112884586Y-96737714D01*
X113465428Y-96737714D01*
X113501714Y-96774000D01*
X113538000Y-96737714D01*
X113501714Y-96701428D01*
X113465428Y-96737714D01*
X112884586Y-96737714D01*
X112941445Y-96712391D01*
X112993714Y-96628857D01*
X113047107Y-96527716D01*
X113276181Y-96527716D01*
X113279546Y-96556285D01*
X113335590Y-96509190D01*
X113429143Y-96411143D01*
X113511389Y-96306170D01*
X113509278Y-96302285D01*
X115642571Y-96302285D01*
X115678857Y-96338571D01*
X115715143Y-96302285D01*
X115678857Y-96266000D01*
X115642571Y-96302285D01*
X113509278Y-96302285D01*
X113491120Y-96268883D01*
X113448855Y-96266000D01*
X113342161Y-96326895D01*
X113299258Y-96411143D01*
X113276181Y-96527716D01*
X113047107Y-96527716D01*
X113055577Y-96511672D01*
X113099697Y-96483714D01*
X113185173Y-96431902D01*
X113196210Y-96319807D01*
X113131637Y-96212440D01*
X113104909Y-96194679D01*
X112958910Y-96165347D01*
X112853834Y-96234819D01*
X112690789Y-96311779D01*
X112576651Y-96293339D01*
X112370455Y-96254569D01*
X112183919Y-96303121D01*
X111975457Y-96453647D01*
X111885846Y-96536768D01*
X111759599Y-96663113D01*
X111713734Y-96719315D01*
X111434461Y-96719315D01*
X111431261Y-96716917D01*
X111297817Y-96672164D01*
X111182998Y-96744512D01*
X111095627Y-96815384D01*
X111070571Y-96812642D01*
X111025631Y-96823711D01*
X110916970Y-96911471D01*
X110911744Y-96916315D01*
X110749759Y-97040202D01*
X110655352Y-97051728D01*
X110635143Y-96991714D01*
X110591869Y-96922296D01*
X110470917Y-96961108D01*
X110285588Y-97103290D01*
X110256484Y-97130026D01*
X110100284Y-97253688D01*
X109978471Y-97311560D01*
X109951955Y-97310638D01*
X109870705Y-97350688D01*
X109753323Y-97493431D01*
X109619320Y-97707506D01*
X109488206Y-97961553D01*
X109379489Y-98224211D01*
X109374143Y-98239446D01*
X109269618Y-98510546D01*
X109143383Y-98799210D01*
X109109626Y-98869836D01*
X109019013Y-99116372D01*
X108969614Y-99418042D01*
X108959670Y-99800864D01*
X108102125Y-99800864D01*
X108104607Y-99640426D01*
X108121852Y-99394777D01*
X108154063Y-99192955D01*
X108203830Y-99009649D01*
X108273744Y-98819548D01*
X108347132Y-98642714D01*
X108359451Y-98536318D01*
X108321451Y-98515714D01*
X108181431Y-98572471D01*
X108040418Y-98704006D01*
X107955806Y-98852215D01*
X107950000Y-98891763D01*
X107900952Y-99011033D01*
X107783411Y-99165009D01*
X107641780Y-99305081D01*
X107520462Y-99382642D01*
X107498000Y-99386571D01*
X107389239Y-99435397D01*
X107268267Y-99545367D01*
X107189236Y-99661715D01*
X107182479Y-99705671D01*
X107180436Y-99746085D01*
X107170058Y-99731285D01*
X107086216Y-99677192D01*
X107014722Y-99731944D01*
X107006571Y-99777950D01*
X104166466Y-99777950D01*
X104176286Y-99754612D01*
X104234983Y-99685660D01*
X104285143Y-99676857D01*
X104381683Y-99635406D01*
X104394000Y-99600002D01*
X104440897Y-99560946D01*
X104484714Y-99577647D01*
X104528508Y-99587237D01*
X104475828Y-99509359D01*
X104416288Y-99415525D01*
X104470340Y-99387375D01*
X104512114Y-99386224D01*
X104644237Y-99339321D01*
X104822291Y-99221025D01*
X104905945Y-99150367D01*
X105214191Y-98905552D01*
X105544979Y-98731438D01*
X105708332Y-98667989D01*
X105826815Y-98602869D01*
X105896199Y-98487467D01*
X105940162Y-98278186D01*
X105947024Y-98228533D01*
X105954555Y-98189142D01*
X108458000Y-98189142D01*
X108494286Y-98225428D01*
X108530571Y-98189142D01*
X108494286Y-98152857D01*
X108458000Y-98189142D01*
X105954555Y-98189142D01*
X105985377Y-98027952D01*
X106031123Y-97910517D01*
X106059429Y-97896562D01*
X106178837Y-97911252D01*
X106289572Y-97853077D01*
X106327761Y-97758626D01*
X106323874Y-97745087D01*
X106344972Y-97627455D01*
X106447038Y-97488914D01*
X106478113Y-97463428D01*
X106861428Y-97463428D01*
X106897714Y-97499714D01*
X106934000Y-97463428D01*
X106897714Y-97427142D01*
X106861428Y-97463428D01*
X106478113Y-97463428D01*
X106583185Y-97377257D01*
X106706530Y-97340278D01*
X106718206Y-97343116D01*
X106827823Y-97315634D01*
X106925553Y-97233619D01*
X107103333Y-97233619D01*
X107113295Y-97276762D01*
X107151714Y-97282000D01*
X107211449Y-97255447D01*
X107200095Y-97233619D01*
X107113970Y-97224933D01*
X107103333Y-97233619D01*
X106925553Y-97233619D01*
X106959890Y-97204804D01*
X106965197Y-97198651D01*
X107124584Y-97044039D01*
X107160432Y-97015904D01*
X107829048Y-97015904D01*
X107839009Y-97059048D01*
X107877428Y-97064285D01*
X107937163Y-97037733D01*
X107925809Y-97015904D01*
X107839684Y-97007219D01*
X107829048Y-97015904D01*
X107160432Y-97015904D01*
X107320859Y-96889996D01*
X107772961Y-96889996D01*
X107825795Y-96913261D01*
X107932136Y-96831331D01*
X107944638Y-96816746D01*
X107987265Y-96707321D01*
X107957165Y-96669571D01*
X107872370Y-96688908D01*
X107805945Y-96771967D01*
X107772961Y-96889996D01*
X107320859Y-96889996D01*
X107333118Y-96880375D01*
X107387075Y-96843537D01*
X107551095Y-96723916D01*
X107648045Y-96630210D01*
X107659218Y-96606431D01*
X107704994Y-96579624D01*
X107730236Y-96591304D01*
X107836545Y-96594234D01*
X107967167Y-96529734D01*
X108074999Y-96433331D01*
X108098910Y-96374857D01*
X108240286Y-96374857D01*
X108276571Y-96411143D01*
X108312857Y-96374857D01*
X108276571Y-96338571D01*
X108240286Y-96374857D01*
X108098910Y-96374857D01*
X108112939Y-96340551D01*
X108098869Y-96313269D01*
X108091547Y-96302285D01*
X108385428Y-96302285D01*
X108421714Y-96338571D01*
X108458000Y-96302285D01*
X108421714Y-96266000D01*
X108385428Y-96302285D01*
X108091547Y-96302285D01*
X108032526Y-96213759D01*
X108033519Y-96147098D01*
X108093643Y-96156216D01*
X108207831Y-96160914D01*
X108305503Y-96124793D01*
X108428046Y-96087566D01*
X108476052Y-96138726D01*
X108527209Y-96190266D01*
X108644322Y-96154233D01*
X108681477Y-96135273D01*
X108953796Y-95983946D01*
X109139781Y-95854605D01*
X109274000Y-95721714D01*
X109401429Y-95721714D01*
X109437714Y-95758000D01*
X109474000Y-95721714D01*
X109437714Y-95685428D01*
X109401429Y-95721714D01*
X109274000Y-95721714D01*
X109285674Y-95710156D01*
X109411011Y-95550089D01*
X109442555Y-95512174D01*
X109716660Y-95512174D01*
X109728000Y-95540285D01*
X109793213Y-95609517D01*
X109804854Y-95612857D01*
X109836025Y-95556709D01*
X109836857Y-95540285D01*
X109781068Y-95470503D01*
X109760003Y-95467714D01*
X109716660Y-95512174D01*
X109442555Y-95512174D01*
X109570110Y-95358857D01*
X109691714Y-95358857D01*
X109728000Y-95395142D01*
X109764286Y-95358857D01*
X109728000Y-95322571D01*
X109691714Y-95358857D01*
X109570110Y-95358857D01*
X109572646Y-95355810D01*
X109710181Y-95265640D01*
X109864804Y-95254056D01*
X109884762Y-95256502D01*
X109955638Y-95207838D01*
X109997225Y-95147645D01*
X110114425Y-95056876D01*
X110234422Y-95032285D01*
X110412791Y-94992236D01*
X110506344Y-94933003D01*
X110520284Y-94923428D01*
X111578571Y-94923428D01*
X111614857Y-94959714D01*
X111651143Y-94923428D01*
X111614857Y-94887142D01*
X111578571Y-94923428D01*
X110520284Y-94923428D01*
X110657215Y-94829380D01*
X110765527Y-94782969D01*
X110890397Y-94717811D01*
X110925429Y-94664538D01*
X110984281Y-94604469D01*
X111034286Y-94596857D01*
X111125931Y-94625923D01*
G36*
X111409238Y-107103333D02*
G01*
X111399276Y-107146477D01*
X111360857Y-107151714D01*
X111301123Y-107125161D01*
X111312476Y-107103333D01*
X111398601Y-107094648D01*
X111409238Y-107103333D01*
G37*
X111409238Y-107103333D02*
X111399276Y-107146477D01*
X111360857Y-107151714D01*
X111301123Y-107125161D01*
X111312476Y-107103333D01*
X111398601Y-107094648D01*
X111409238Y-107103333D01*
D11*
G36*
X135630228Y-157677703D02*
G01*
X135785100Y-157741853D01*
X135924481Y-157834985D01*
X136043015Y-157953519D01*
X136136147Y-158092900D01*
X136200297Y-158247772D01*
X136233000Y-158412184D01*
X136233000Y-158579816D01*
X136200297Y-158744228D01*
X136136147Y-158899100D01*
X136043015Y-159038481D01*
X135924481Y-159157015D01*
X135785100Y-159250147D01*
X135630228Y-159314297D01*
X135465816Y-159347000D01*
X135298184Y-159347000D01*
X135133772Y-159314297D01*
X134978900Y-159250147D01*
X134839519Y-159157015D01*
X134720985Y-159038481D01*
X134627853Y-158899100D01*
X134563703Y-158744228D01*
X134531000Y-158579816D01*
X134531000Y-158412184D01*
X134563703Y-158247772D01*
X134627853Y-158092900D01*
X134720985Y-157953519D01*
X134839519Y-157834985D01*
X134978900Y-157741853D01*
X135133772Y-157677703D01*
X135298184Y-157645000D01*
X135465816Y-157645000D01*
X135630228Y-157677703D01*
G37*
G36*
X120993000Y-159347000D02*
G01*
X119291000Y-159347000D01*
X119291000Y-157645000D01*
X120993000Y-157645000D01*
X120993000Y-159347000D01*
G37*
G36*
X141457642Y-156201781D02*
G01*
X141603414Y-156262162D01*
X141603416Y-156262163D01*
X141734608Y-156349822D01*
X141846178Y-156461392D01*
X141933837Y-156592584D01*
X141933838Y-156592586D01*
X141994219Y-156738358D01*
X142025000Y-156893107D01*
X142025000Y-157050893D01*
X141994219Y-157205642D01*
X141933838Y-157351414D01*
X141933837Y-157351416D01*
X141846178Y-157482608D01*
X141734608Y-157594178D01*
X141603416Y-157681837D01*
X141603415Y-157681838D01*
X141603414Y-157681838D01*
X141457642Y-157742219D01*
X141302893Y-157773000D01*
X141145107Y-157773000D01*
X140990358Y-157742219D01*
X140844586Y-157681838D01*
X140844585Y-157681838D01*
X140844584Y-157681837D01*
X140713392Y-157594178D01*
X140601822Y-157482608D01*
X140514163Y-157351416D01*
X140514162Y-157351414D01*
X140453781Y-157205642D01*
X140423000Y-157050893D01*
X140423000Y-156893107D01*
X140453781Y-156738358D01*
X140514162Y-156592586D01*
X140514163Y-156592584D01*
X140601822Y-156461392D01*
X140713392Y-156349822D01*
X140844584Y-156262163D01*
X140844586Y-156262162D01*
X140990358Y-156201781D01*
X141145107Y-156171000D01*
X141302893Y-156171000D01*
X141457642Y-156201781D01*
G37*
G36*
X135630228Y-155137703D02*
G01*
X135785100Y-155201853D01*
X135924481Y-155294985D01*
X136043015Y-155413519D01*
X136136147Y-155552900D01*
X136200297Y-155707772D01*
X136233000Y-155872184D01*
X136233000Y-156039816D01*
X136200297Y-156204228D01*
X136136147Y-156359100D01*
X136043015Y-156498481D01*
X135924481Y-156617015D01*
X135785100Y-156710147D01*
X135630228Y-156774297D01*
X135465816Y-156807000D01*
X135298184Y-156807000D01*
X135133772Y-156774297D01*
X134978900Y-156710147D01*
X134839519Y-156617015D01*
X134720985Y-156498481D01*
X134627853Y-156359100D01*
X134563703Y-156204228D01*
X134531000Y-156039816D01*
X134531000Y-155872184D01*
X134563703Y-155707772D01*
X134627853Y-155552900D01*
X134720985Y-155413519D01*
X134839519Y-155294985D01*
X134978900Y-155201853D01*
X135133772Y-155137703D01*
X135298184Y-155105000D01*
X135465816Y-155105000D01*
X135630228Y-155137703D01*
G37*
G36*
X120390228Y-155137703D02*
G01*
X120545100Y-155201853D01*
X120684481Y-155294985D01*
X120803015Y-155413519D01*
X120896147Y-155552900D01*
X120960297Y-155707772D01*
X120993000Y-155872184D01*
X120993000Y-156039816D01*
X120960297Y-156204228D01*
X120896147Y-156359100D01*
X120803015Y-156498481D01*
X120684481Y-156617015D01*
X120545100Y-156710147D01*
X120390228Y-156774297D01*
X120225816Y-156807000D01*
X120058184Y-156807000D01*
X119893772Y-156774297D01*
X119738900Y-156710147D01*
X119599519Y-156617015D01*
X119480985Y-156498481D01*
X119387853Y-156359100D01*
X119323703Y-156204228D01*
X119291000Y-156039816D01*
X119291000Y-155872184D01*
X119323703Y-155707772D01*
X119387853Y-155552900D01*
X119480985Y-155413519D01*
X119599519Y-155294985D01*
X119738900Y-155201853D01*
X119893772Y-155137703D01*
X120058184Y-155105000D01*
X120225816Y-155105000D01*
X120390228Y-155137703D01*
G37*
G36*
X120390228Y-152597703D02*
G01*
X120545100Y-152661853D01*
X120684481Y-152754985D01*
X120803015Y-152873519D01*
X120896147Y-153012900D01*
X120960297Y-153167772D01*
X120993000Y-153332184D01*
X120993000Y-153499816D01*
X120960297Y-153664228D01*
X120896147Y-153819100D01*
X120803015Y-153958481D01*
X120684481Y-154077015D01*
X120545100Y-154170147D01*
X120390228Y-154234297D01*
X120225816Y-154267000D01*
X120058184Y-154267000D01*
X119893772Y-154234297D01*
X119738900Y-154170147D01*
X119599519Y-154077015D01*
X119480985Y-153958481D01*
X119387853Y-153819100D01*
X119323703Y-153664228D01*
X119291000Y-153499816D01*
X119291000Y-153332184D01*
X119323703Y-153167772D01*
X119387853Y-153012900D01*
X119480985Y-152873519D01*
X119599519Y-152754985D01*
X119738900Y-152661853D01*
X119893772Y-152597703D01*
X120058184Y-152565000D01*
X120225816Y-152565000D01*
X120390228Y-152597703D01*
G37*
G36*
X135630228Y-152597703D02*
G01*
X135785100Y-152661853D01*
X135924481Y-152754985D01*
X136043015Y-152873519D01*
X136136147Y-153012900D01*
X136200297Y-153167772D01*
X136233000Y-153332184D01*
X136233000Y-153499816D01*
X136200297Y-153664228D01*
X136136147Y-153819100D01*
X136043015Y-153958481D01*
X135924481Y-154077015D01*
X135785100Y-154170147D01*
X135630228Y-154234297D01*
X135465816Y-154267000D01*
X135298184Y-154267000D01*
X135133772Y-154234297D01*
X134978900Y-154170147D01*
X134839519Y-154077015D01*
X134720985Y-153958481D01*
X134627853Y-153819100D01*
X134563703Y-153664228D01*
X134531000Y-153499816D01*
X134531000Y-153332184D01*
X134563703Y-153167772D01*
X134627853Y-153012900D01*
X134720985Y-152873519D01*
X134839519Y-152754985D01*
X134978900Y-152661853D01*
X135133772Y-152597703D01*
X135298184Y-152565000D01*
X135465816Y-152565000D01*
X135630228Y-152597703D01*
G37*
G36*
X141457642Y-151121781D02*
G01*
X141603414Y-151182162D01*
X141603416Y-151182163D01*
X141734608Y-151269822D01*
X141846178Y-151381392D01*
X141933837Y-151512584D01*
X141933838Y-151512586D01*
X141994219Y-151658358D01*
X142025000Y-151813107D01*
X142025000Y-151970893D01*
X141994219Y-152125642D01*
X141933838Y-152271414D01*
X141933837Y-152271416D01*
X141846178Y-152402608D01*
X141734608Y-152514178D01*
X141603416Y-152601837D01*
X141603415Y-152601838D01*
X141603414Y-152601838D01*
X141457642Y-152662219D01*
X141302893Y-152693000D01*
X141145107Y-152693000D01*
X140990358Y-152662219D01*
X140844586Y-152601838D01*
X140844585Y-152601838D01*
X140844584Y-152601837D01*
X140713392Y-152514178D01*
X140601822Y-152402608D01*
X140514163Y-152271416D01*
X140514162Y-152271414D01*
X140453781Y-152125642D01*
X140423000Y-151970893D01*
X140423000Y-151813107D01*
X140453781Y-151658358D01*
X140514162Y-151512586D01*
X140514163Y-151512584D01*
X140601822Y-151381392D01*
X140713392Y-151269822D01*
X140844584Y-151182163D01*
X140844586Y-151182162D01*
X140990358Y-151121781D01*
X141145107Y-151091000D01*
X141302893Y-151091000D01*
X141457642Y-151121781D01*
G37*
G36*
X135630228Y-150057703D02*
G01*
X135785100Y-150121853D01*
X135924481Y-150214985D01*
X136043015Y-150333519D01*
X136136147Y-150472900D01*
X136200297Y-150627772D01*
X136233000Y-150792184D01*
X136233000Y-150959816D01*
X136200297Y-151124228D01*
X136136147Y-151279100D01*
X136043015Y-151418481D01*
X135924481Y-151537015D01*
X135785100Y-151630147D01*
X135630228Y-151694297D01*
X135465816Y-151727000D01*
X135298184Y-151727000D01*
X135133772Y-151694297D01*
X134978900Y-151630147D01*
X134839519Y-151537015D01*
X134720985Y-151418481D01*
X134627853Y-151279100D01*
X134563703Y-151124228D01*
X134531000Y-150959816D01*
X134531000Y-150792184D01*
X134563703Y-150627772D01*
X134627853Y-150472900D01*
X134720985Y-150333519D01*
X134839519Y-150214985D01*
X134978900Y-150121853D01*
X135133772Y-150057703D01*
X135298184Y-150025000D01*
X135465816Y-150025000D01*
X135630228Y-150057703D01*
G37*
G36*
X120390228Y-150057703D02*
G01*
X120545100Y-150121853D01*
X120684481Y-150214985D01*
X120803015Y-150333519D01*
X120896147Y-150472900D01*
X120960297Y-150627772D01*
X120993000Y-150792184D01*
X120993000Y-150959816D01*
X120960297Y-151124228D01*
X120896147Y-151279100D01*
X120803015Y-151418481D01*
X120684481Y-151537015D01*
X120545100Y-151630147D01*
X120390228Y-151694297D01*
X120225816Y-151727000D01*
X120058184Y-151727000D01*
X119893772Y-151694297D01*
X119738900Y-151630147D01*
X119599519Y-151537015D01*
X119480985Y-151418481D01*
X119387853Y-151279100D01*
X119323703Y-151124228D01*
X119291000Y-150959816D01*
X119291000Y-150792184D01*
X119323703Y-150627772D01*
X119387853Y-150472900D01*
X119480985Y-150333519D01*
X119599519Y-150214985D01*
X119738900Y-150121853D01*
X119893772Y-150057703D01*
X120058184Y-150025000D01*
X120225816Y-150025000D01*
X120390228Y-150057703D01*
G37*
G36*
X120390228Y-147517703D02*
G01*
X120545100Y-147581853D01*
X120684481Y-147674985D01*
X120803015Y-147793519D01*
X120896147Y-147932900D01*
X120960297Y-148087772D01*
X120993000Y-148252184D01*
X120993000Y-148419816D01*
X120960297Y-148584228D01*
X120896147Y-148739100D01*
X120803015Y-148878481D01*
X120684481Y-148997015D01*
X120545100Y-149090147D01*
X120390228Y-149154297D01*
X120225816Y-149187000D01*
X120058184Y-149187000D01*
X119893772Y-149154297D01*
X119738900Y-149090147D01*
X119599519Y-148997015D01*
X119480985Y-148878481D01*
X119387853Y-148739100D01*
X119323703Y-148584228D01*
X119291000Y-148419816D01*
X119291000Y-148252184D01*
X119323703Y-148087772D01*
X119387853Y-147932900D01*
X119480985Y-147793519D01*
X119599519Y-147674985D01*
X119738900Y-147581853D01*
X119893772Y-147517703D01*
X120058184Y-147485000D01*
X120225816Y-147485000D01*
X120390228Y-147517703D01*
G37*
G36*
X135630228Y-147517703D02*
G01*
X135785100Y-147581853D01*
X135924481Y-147674985D01*
X136043015Y-147793519D01*
X136136147Y-147932900D01*
X136200297Y-148087772D01*
X136233000Y-148252184D01*
X136233000Y-148419816D01*
X136200297Y-148584228D01*
X136136147Y-148739100D01*
X136043015Y-148878481D01*
X135924481Y-148997015D01*
X135785100Y-149090147D01*
X135630228Y-149154297D01*
X135465816Y-149187000D01*
X135298184Y-149187000D01*
X135133772Y-149154297D01*
X134978900Y-149090147D01*
X134839519Y-148997015D01*
X134720985Y-148878481D01*
X134627853Y-148739100D01*
X134563703Y-148584228D01*
X134531000Y-148419816D01*
X134531000Y-148252184D01*
X134563703Y-148087772D01*
X134627853Y-147932900D01*
X134720985Y-147793519D01*
X134839519Y-147674985D01*
X134978900Y-147581853D01*
X135133772Y-147517703D01*
X135298184Y-147485000D01*
X135465816Y-147485000D01*
X135630228Y-147517703D01*
G37*
G36*
X120390228Y-144977703D02*
G01*
X120545100Y-145041853D01*
X120684481Y-145134985D01*
X120803015Y-145253519D01*
X120896147Y-145392900D01*
X120960297Y-145547772D01*
X120993000Y-145712184D01*
X120993000Y-145879816D01*
X120960297Y-146044228D01*
X120896147Y-146199100D01*
X120803015Y-146338481D01*
X120684481Y-146457015D01*
X120545100Y-146550147D01*
X120390228Y-146614297D01*
X120225816Y-146647000D01*
X120058184Y-146647000D01*
X119893772Y-146614297D01*
X119738900Y-146550147D01*
X119599519Y-146457015D01*
X119480985Y-146338481D01*
X119387853Y-146199100D01*
X119323703Y-146044228D01*
X119291000Y-145879816D01*
X119291000Y-145712184D01*
X119323703Y-145547772D01*
X119387853Y-145392900D01*
X119480985Y-145253519D01*
X119599519Y-145134985D01*
X119738900Y-145041853D01*
X119893772Y-144977703D01*
X120058184Y-144945000D01*
X120225816Y-144945000D01*
X120390228Y-144977703D01*
G37*
G36*
X135630228Y-144977703D02*
G01*
X135785100Y-145041853D01*
X135924481Y-145134985D01*
X136043015Y-145253519D01*
X136136147Y-145392900D01*
X136200297Y-145547772D01*
X136233000Y-145712184D01*
X136233000Y-145879816D01*
X136200297Y-146044228D01*
X136136147Y-146199100D01*
X136043015Y-146338481D01*
X135924481Y-146457015D01*
X135785100Y-146550147D01*
X135630228Y-146614297D01*
X135465816Y-146647000D01*
X135298184Y-146647000D01*
X135133772Y-146614297D01*
X134978900Y-146550147D01*
X134839519Y-146457015D01*
X134720985Y-146338481D01*
X134627853Y-146199100D01*
X134563703Y-146044228D01*
X134531000Y-145879816D01*
X134531000Y-145712184D01*
X134563703Y-145547772D01*
X134627853Y-145392900D01*
X134720985Y-145253519D01*
X134839519Y-145134985D01*
X134978900Y-145041853D01*
X135133772Y-144977703D01*
X135298184Y-144945000D01*
X135465816Y-144945000D01*
X135630228Y-144977703D01*
G37*
G36*
X135630228Y-142437703D02*
G01*
X135785100Y-142501853D01*
X135924481Y-142594985D01*
X136043015Y-142713519D01*
X136136147Y-142852900D01*
X136200297Y-143007772D01*
X136233000Y-143172184D01*
X136233000Y-143339816D01*
X136200297Y-143504228D01*
X136136147Y-143659100D01*
X136043015Y-143798481D01*
X135924481Y-143917015D01*
X135785100Y-144010147D01*
X135630228Y-144074297D01*
X135465816Y-144107000D01*
X135298184Y-144107000D01*
X135133772Y-144074297D01*
X134978900Y-144010147D01*
X134839519Y-143917015D01*
X134720985Y-143798481D01*
X134627853Y-143659100D01*
X134563703Y-143504228D01*
X134531000Y-143339816D01*
X134531000Y-143172184D01*
X134563703Y-143007772D01*
X134627853Y-142852900D01*
X134720985Y-142713519D01*
X134839519Y-142594985D01*
X134978900Y-142501853D01*
X135133772Y-142437703D01*
X135298184Y-142405000D01*
X135465816Y-142405000D01*
X135630228Y-142437703D01*
G37*
G36*
X120390228Y-142437703D02*
G01*
X120545100Y-142501853D01*
X120684481Y-142594985D01*
X120803015Y-142713519D01*
X120896147Y-142852900D01*
X120960297Y-143007772D01*
X120993000Y-143172184D01*
X120993000Y-143339816D01*
X120960297Y-143504228D01*
X120896147Y-143659100D01*
X120803015Y-143798481D01*
X120684481Y-143917015D01*
X120545100Y-144010147D01*
X120390228Y-144074297D01*
X120225816Y-144107000D01*
X120058184Y-144107000D01*
X119893772Y-144074297D01*
X119738900Y-144010147D01*
X119599519Y-143917015D01*
X119480985Y-143798481D01*
X119387853Y-143659100D01*
X119323703Y-143504228D01*
X119291000Y-143339816D01*
X119291000Y-143172184D01*
X119323703Y-143007772D01*
X119387853Y-142852900D01*
X119480985Y-142713519D01*
X119599519Y-142594985D01*
X119738900Y-142501853D01*
X119893772Y-142437703D01*
X120058184Y-142405000D01*
X120225816Y-142405000D01*
X120390228Y-142437703D01*
G37*
G36*
X128113549Y-141169116D02*
G01*
X128224734Y-141191232D01*
X128434203Y-141277997D01*
X128622720Y-141403960D01*
X128783040Y-141564280D01*
X128784857Y-141567000D01*
X128909004Y-141752799D01*
X128995768Y-141962267D01*
X129040000Y-142184635D01*
X129040000Y-142411365D01*
X129022001Y-142501852D01*
X128995768Y-142633734D01*
X128909003Y-142843203D01*
X128783040Y-143031720D01*
X128622720Y-143192040D01*
X128434203Y-143318003D01*
X128224734Y-143404768D01*
X128113549Y-143426884D01*
X128002365Y-143449000D01*
X127775635Y-143449000D01*
X127664451Y-143426884D01*
X127553266Y-143404768D01*
X127343797Y-143318003D01*
X127155280Y-143192040D01*
X126994960Y-143031720D01*
X126868997Y-142843203D01*
X126782232Y-142633734D01*
X126755999Y-142501852D01*
X126738000Y-142411365D01*
X126738000Y-142184635D01*
X126782232Y-141962267D01*
X126868996Y-141752799D01*
X126993143Y-141567000D01*
X126994960Y-141564280D01*
X127155280Y-141403960D01*
X127343797Y-141277997D01*
X127553266Y-141191232D01*
X127664451Y-141169116D01*
X127775635Y-141147000D01*
X128002365Y-141147000D01*
X128113549Y-141169116D01*
G37*
G36*
X120390228Y-139897703D02*
G01*
X120545100Y-139961853D01*
X120684481Y-140054985D01*
X120803015Y-140173519D01*
X120896147Y-140312900D01*
X120960297Y-140467772D01*
X120993000Y-140632184D01*
X120993000Y-140799816D01*
X120960297Y-140964228D01*
X120896147Y-141119100D01*
X120803015Y-141258481D01*
X120684481Y-141377015D01*
X120545100Y-141470147D01*
X120390228Y-141534297D01*
X120225816Y-141567000D01*
X120058184Y-141567000D01*
X119893772Y-141534297D01*
X119738900Y-141470147D01*
X119599519Y-141377015D01*
X119480985Y-141258481D01*
X119387853Y-141119100D01*
X119323703Y-140964228D01*
X119291000Y-140799816D01*
X119291000Y-140632184D01*
X119323703Y-140467772D01*
X119387853Y-140312900D01*
X119480985Y-140173519D01*
X119599519Y-140054985D01*
X119738900Y-139961853D01*
X119893772Y-139897703D01*
X120058184Y-139865000D01*
X120225816Y-139865000D01*
X120390228Y-139897703D01*
G37*
G36*
X135630228Y-139897703D02*
G01*
X135785100Y-139961853D01*
X135924481Y-140054985D01*
X136043015Y-140173519D01*
X136136147Y-140312900D01*
X136200297Y-140467772D01*
X136233000Y-140632184D01*
X136233000Y-140799816D01*
X136200297Y-140964228D01*
X136136147Y-141119100D01*
X136043015Y-141258481D01*
X135924481Y-141377015D01*
X135785100Y-141470147D01*
X135630228Y-141534297D01*
X135465816Y-141567000D01*
X135298184Y-141567000D01*
X135133772Y-141534297D01*
X134978900Y-141470147D01*
X134839519Y-141377015D01*
X134720985Y-141258481D01*
X134627853Y-141119100D01*
X134563703Y-140964228D01*
X134531000Y-140799816D01*
X134531000Y-140632184D01*
X134563703Y-140467772D01*
X134627853Y-140312900D01*
X134720985Y-140173519D01*
X134839519Y-140054985D01*
X134978900Y-139961853D01*
X135133772Y-139897703D01*
X135298184Y-139865000D01*
X135465816Y-139865000D01*
X135630228Y-139897703D01*
G37*
G36*
X123113549Y-139069116D02*
G01*
X123224734Y-139091232D01*
X123434203Y-139177997D01*
X123622720Y-139303960D01*
X123783040Y-139464280D01*
X123909003Y-139652797D01*
X123909004Y-139652799D01*
X123995768Y-139862267D01*
X124040000Y-140084635D01*
X124040000Y-140311365D01*
X124039694Y-140312903D01*
X123995768Y-140533734D01*
X123909003Y-140743203D01*
X123783040Y-140931720D01*
X123622720Y-141092040D01*
X123434203Y-141218003D01*
X123224734Y-141304768D01*
X123113549Y-141326884D01*
X123002365Y-141349000D01*
X122775635Y-141349000D01*
X122664451Y-141326884D01*
X122553266Y-141304768D01*
X122343797Y-141218003D01*
X122155280Y-141092040D01*
X121994960Y-140931720D01*
X121868997Y-140743203D01*
X121782232Y-140533734D01*
X121738306Y-140312903D01*
X121738000Y-140311365D01*
X121738000Y-140084635D01*
X121782232Y-139862267D01*
X121868996Y-139652799D01*
X121868997Y-139652797D01*
X121994960Y-139464280D01*
X122155280Y-139303960D01*
X122343797Y-139177997D01*
X122553266Y-139091232D01*
X122664451Y-139069116D01*
X122775635Y-139047000D01*
X123002365Y-139047000D01*
X123113549Y-139069116D01*
G37*
G36*
X135630228Y-137357703D02*
G01*
X135785100Y-137421853D01*
X135924481Y-137514985D01*
X136043015Y-137633519D01*
X136136147Y-137772900D01*
X136200297Y-137927772D01*
X136233000Y-138092184D01*
X136233000Y-138259816D01*
X136200297Y-138424228D01*
X136136147Y-138579100D01*
X136043015Y-138718481D01*
X135924481Y-138837015D01*
X135785100Y-138930147D01*
X135630228Y-138994297D01*
X135465816Y-139027000D01*
X135298184Y-139027000D01*
X135133772Y-138994297D01*
X134978900Y-138930147D01*
X134839519Y-138837015D01*
X134720985Y-138718481D01*
X134627853Y-138579100D01*
X134563703Y-138424228D01*
X134531000Y-138259816D01*
X134531000Y-138092184D01*
X134563703Y-137927772D01*
X134627853Y-137772900D01*
X134720985Y-137633519D01*
X134839519Y-137514985D01*
X134978900Y-137421853D01*
X135133772Y-137357703D01*
X135298184Y-137325000D01*
X135465816Y-137325000D01*
X135630228Y-137357703D01*
G37*
G36*
X120390228Y-137357703D02*
G01*
X120545100Y-137421853D01*
X120684481Y-137514985D01*
X120803015Y-137633519D01*
X120896147Y-137772900D01*
X120960297Y-137927772D01*
X120993000Y-138092184D01*
X120993000Y-138259816D01*
X120960297Y-138424228D01*
X120896147Y-138579100D01*
X120803015Y-138718481D01*
X120684481Y-138837015D01*
X120545100Y-138930147D01*
X120390228Y-138994297D01*
X120225816Y-139027000D01*
X120058184Y-139027000D01*
X119893772Y-138994297D01*
X119738900Y-138930147D01*
X119599519Y-138837015D01*
X119480985Y-138718481D01*
X119387853Y-138579100D01*
X119323703Y-138424228D01*
X119291000Y-138259816D01*
X119291000Y-138092184D01*
X119323703Y-137927772D01*
X119387853Y-137772900D01*
X119480985Y-137633519D01*
X119599519Y-137514985D01*
X119738900Y-137421853D01*
X119893772Y-137357703D01*
X120058184Y-137325000D01*
X120225816Y-137325000D01*
X120390228Y-137357703D01*
G37*
G36*
X128487254Y-134425818D02*
G01*
X128860511Y-134580426D01*
X128860513Y-134580427D01*
X129196436Y-134804884D01*
X129482116Y-135090564D01*
X129680704Y-135387771D01*
X129706574Y-135426489D01*
X129861182Y-135799746D01*
X129940000Y-136195993D01*
X129940000Y-136600007D01*
X129861182Y-136996254D01*
X129731839Y-137308515D01*
X129706573Y-137369513D01*
X129482116Y-137705436D01*
X129196436Y-137991116D01*
X128860513Y-138215573D01*
X128860512Y-138215574D01*
X128860511Y-138215574D01*
X128487254Y-138370182D01*
X128091007Y-138449000D01*
X127686993Y-138449000D01*
X127290746Y-138370182D01*
X126917489Y-138215574D01*
X126917488Y-138215574D01*
X126917487Y-138215573D01*
X126581564Y-137991116D01*
X126295884Y-137705436D01*
X126071427Y-137369513D01*
X126046161Y-137308515D01*
X125916818Y-136996254D01*
X125838000Y-136600007D01*
X125838000Y-136195993D01*
X125916818Y-135799746D01*
X126071426Y-135426489D01*
X126097297Y-135387771D01*
X126295884Y-135090564D01*
X126581564Y-134804884D01*
X126917487Y-134580427D01*
X126917489Y-134580426D01*
X127290746Y-134425818D01*
X127686993Y-134347000D01*
X128091007Y-134347000D01*
X128487254Y-134425818D01*
G37*
G36*
X122680981Y-135435468D02*
G01*
X122801310Y-135485311D01*
X122806560Y-135487485D01*
X122830009Y-135494598D01*
X122854395Y-135497000D01*
X122897742Y-135497000D01*
X122922512Y-135501927D01*
X123071812Y-135531624D01*
X123235784Y-135599544D01*
X123383354Y-135698147D01*
X123508853Y-135823646D01*
X123607456Y-135971216D01*
X123675376Y-136135188D01*
X123705073Y-136284488D01*
X123710000Y-136309258D01*
X123710000Y-136486742D01*
X123708041Y-136496590D01*
X123675376Y-136660812D01*
X123607456Y-136824784D01*
X123508853Y-136972354D01*
X123383354Y-137097853D01*
X123235784Y-137196456D01*
X123071812Y-137264376D01*
X122922512Y-137294073D01*
X122897742Y-137299000D01*
X122854395Y-137299000D01*
X122830009Y-137301402D01*
X122806560Y-137308515D01*
X122680981Y-137360532D01*
X122487591Y-137399000D01*
X122290409Y-137399000D01*
X122097019Y-137360532D01*
X121914849Y-137285074D01*
X121750900Y-137175527D01*
X121611473Y-137036100D01*
X121501926Y-136872151D01*
X121426468Y-136689981D01*
X121388000Y-136496590D01*
X121388000Y-136299410D01*
X121426468Y-136106019D01*
X121501926Y-135923849D01*
X121611473Y-135759900D01*
X121750900Y-135620473D01*
X121914849Y-135510926D01*
X122097019Y-135435468D01*
X122290409Y-135397000D01*
X122487591Y-135397000D01*
X122680981Y-135435468D01*
G37*
G36*
X133680981Y-135435468D02*
G01*
X133863151Y-135510926D01*
X134027100Y-135620473D01*
X134166527Y-135759900D01*
X134276074Y-135923849D01*
X134351532Y-136106019D01*
X134390000Y-136299410D01*
X134390000Y-136496590D01*
X134351532Y-136689981D01*
X134276074Y-136872151D01*
X134166527Y-137036100D01*
X134027100Y-137175527D01*
X133863151Y-137285074D01*
X133680981Y-137360532D01*
X133487591Y-137399000D01*
X133290409Y-137399000D01*
X133097019Y-137360532D01*
X132971440Y-137308515D01*
X132947991Y-137301402D01*
X132923605Y-137299000D01*
X132880258Y-137299000D01*
X132855488Y-137294073D01*
X132706188Y-137264376D01*
X132542216Y-137196456D01*
X132394646Y-137097853D01*
X132269147Y-136972354D01*
X132170544Y-136824784D01*
X132102624Y-136660812D01*
X132069959Y-136496590D01*
X132068000Y-136486742D01*
X132068000Y-136309258D01*
X132072927Y-136284488D01*
X132102624Y-136135188D01*
X132170544Y-135971216D01*
X132269147Y-135823646D01*
X132394646Y-135698147D01*
X132542216Y-135599544D01*
X132706188Y-135531624D01*
X132855488Y-135501927D01*
X132880258Y-135497000D01*
X132923605Y-135497000D01*
X132947991Y-135494598D01*
X132971440Y-135487485D01*
X132976690Y-135485311D01*
X133097019Y-135435468D01*
X133290409Y-135397000D01*
X133487591Y-135397000D01*
X133680981Y-135435468D01*
G37*
G36*
X135630228Y-134817703D02*
G01*
X135785100Y-134881853D01*
X135924481Y-134974985D01*
X136043015Y-135093519D01*
X136136147Y-135232900D01*
X136200297Y-135387772D01*
X136233000Y-135552184D01*
X136233000Y-135719816D01*
X136200297Y-135884228D01*
X136136147Y-136039100D01*
X136043015Y-136178481D01*
X135924481Y-136297015D01*
X135785100Y-136390147D01*
X135630228Y-136454297D01*
X135465816Y-136487000D01*
X135298184Y-136487000D01*
X135133772Y-136454297D01*
X134978900Y-136390147D01*
X134839519Y-136297015D01*
X134720985Y-136178481D01*
X134627853Y-136039100D01*
X134563703Y-135884228D01*
X134531000Y-135719816D01*
X134531000Y-135552184D01*
X134563703Y-135387772D01*
X134627853Y-135232900D01*
X134720985Y-135093519D01*
X134839519Y-134974985D01*
X134978900Y-134881853D01*
X135133772Y-134817703D01*
X135298184Y-134785000D01*
X135465816Y-134785000D01*
X135630228Y-134817703D01*
G37*
G36*
X120390228Y-134817703D02*
G01*
X120545100Y-134881853D01*
X120684481Y-134974985D01*
X120803015Y-135093519D01*
X120896147Y-135232900D01*
X120960297Y-135387772D01*
X120993000Y-135552184D01*
X120993000Y-135719816D01*
X120960297Y-135884228D01*
X120896147Y-136039100D01*
X120803015Y-136178481D01*
X120684481Y-136297015D01*
X120545100Y-136390147D01*
X120390228Y-136454297D01*
X120225816Y-136487000D01*
X120058184Y-136487000D01*
X119893772Y-136454297D01*
X119738900Y-136390147D01*
X119599519Y-136297015D01*
X119480985Y-136178481D01*
X119387853Y-136039100D01*
X119323703Y-135884228D01*
X119291000Y-135719816D01*
X119291000Y-135552184D01*
X119323703Y-135387772D01*
X119387853Y-135232900D01*
X119480985Y-135093519D01*
X119599519Y-134974985D01*
X119738900Y-134881853D01*
X119893772Y-134817703D01*
X120058184Y-134785000D01*
X120225816Y-134785000D01*
X120390228Y-134817703D01*
G37*
G36*
X124303549Y-132729116D02*
G01*
X124414734Y-132751232D01*
X124624203Y-132837997D01*
X124812720Y-132963960D01*
X124973040Y-133124280D01*
X125099003Y-133312797D01*
X125185768Y-133522266D01*
X125230000Y-133744636D01*
X125230000Y-133971364D01*
X125185768Y-134193734D01*
X125099003Y-134403203D01*
X124973040Y-134591720D01*
X124812720Y-134752040D01*
X124624203Y-134878003D01*
X124624202Y-134878004D01*
X124624201Y-134878004D01*
X124562850Y-134903416D01*
X124414734Y-134964768D01*
X124303549Y-134986884D01*
X124192365Y-135009000D01*
X123965635Y-135009000D01*
X123854451Y-134986884D01*
X123743266Y-134964768D01*
X123595150Y-134903416D01*
X123533799Y-134878004D01*
X123533798Y-134878004D01*
X123533797Y-134878003D01*
X123345280Y-134752040D01*
X123184960Y-134591720D01*
X123058997Y-134403203D01*
X122972232Y-134193734D01*
X122928000Y-133971364D01*
X122928000Y-133744636D01*
X122972232Y-133522266D01*
X123058997Y-133312797D01*
X123184960Y-133124280D01*
X123345280Y-132963960D01*
X123533797Y-132837997D01*
X123743266Y-132751232D01*
X123854451Y-132729116D01*
X123965635Y-132707000D01*
X124192365Y-132707000D01*
X124303549Y-132729116D01*
G37*
G36*
X135630228Y-132277703D02*
G01*
X135785100Y-132341853D01*
X135924481Y-132434985D01*
X136043015Y-132553519D01*
X136136147Y-132692900D01*
X136200297Y-132847772D01*
X136233000Y-133012184D01*
X136233000Y-133179816D01*
X136200297Y-133344228D01*
X136136147Y-133499100D01*
X136043015Y-133638481D01*
X135924481Y-133757015D01*
X135785100Y-133850147D01*
X135630228Y-133914297D01*
X135465816Y-133947000D01*
X135298184Y-133947000D01*
X135133772Y-133914297D01*
X134978900Y-133850147D01*
X134839519Y-133757015D01*
X134720985Y-133638481D01*
X134627853Y-133499100D01*
X134563703Y-133344228D01*
X134531000Y-133179816D01*
X134531000Y-133012184D01*
X134563703Y-132847772D01*
X134627853Y-132692900D01*
X134720985Y-132553519D01*
X134839519Y-132434985D01*
X134978900Y-132341853D01*
X135133772Y-132277703D01*
X135298184Y-132245000D01*
X135465816Y-132245000D01*
X135630228Y-132277703D01*
G37*
G36*
X120390228Y-132277703D02*
G01*
X120545100Y-132341853D01*
X120684481Y-132434985D01*
X120803015Y-132553519D01*
X120896147Y-132692900D01*
X120960297Y-132847772D01*
X120993000Y-133012184D01*
X120993000Y-133179816D01*
X120960297Y-133344228D01*
X120896147Y-133499100D01*
X120803015Y-133638481D01*
X120684481Y-133757015D01*
X120545100Y-133850147D01*
X120390228Y-133914297D01*
X120225816Y-133947000D01*
X120058184Y-133947000D01*
X119893772Y-133914297D01*
X119738900Y-133850147D01*
X119599519Y-133757015D01*
X119480985Y-133638481D01*
X119387853Y-133499100D01*
X119323703Y-133344228D01*
X119291000Y-133179816D01*
X119291000Y-133012184D01*
X119323703Y-132847772D01*
X119387853Y-132692900D01*
X119480985Y-132553519D01*
X119599519Y-132434985D01*
X119738900Y-132341853D01*
X119893772Y-132277703D01*
X120058184Y-132245000D01*
X120225816Y-132245000D01*
X120390228Y-132277703D01*
G37*
G36*
X130653549Y-130189116D02*
G01*
X130764734Y-130211232D01*
X130974203Y-130297997D01*
X131162720Y-130423960D01*
X131323040Y-130584280D01*
X131449003Y-130772797D01*
X131535768Y-130982266D01*
X131580000Y-131204636D01*
X131580000Y-131431364D01*
X131535768Y-131653734D01*
X131449003Y-131863203D01*
X131323040Y-132051720D01*
X131162720Y-132212040D01*
X130974203Y-132338003D01*
X130974202Y-132338004D01*
X130974201Y-132338004D01*
X130912850Y-132363416D01*
X130764734Y-132424768D01*
X130653549Y-132446884D01*
X130542365Y-132469000D01*
X130315635Y-132469000D01*
X130204451Y-132446884D01*
X130093266Y-132424768D01*
X129945150Y-132363416D01*
X129883799Y-132338004D01*
X129883798Y-132338004D01*
X129883797Y-132338003D01*
X129695280Y-132212040D01*
X129534960Y-132051720D01*
X129408997Y-131863203D01*
X129322232Y-131653734D01*
X129278000Y-131431364D01*
X129278000Y-131204636D01*
X129322232Y-130982266D01*
X129408997Y-130772797D01*
X129534960Y-130584280D01*
X129695280Y-130423960D01*
X129883797Y-130297997D01*
X130093266Y-130211232D01*
X130204451Y-130189116D01*
X130315635Y-130167000D01*
X130542365Y-130167000D01*
X130653549Y-130189116D01*
G37*
G36*
X135630228Y-129737703D02*
G01*
X135785100Y-129801853D01*
X135924481Y-129894985D01*
X136043015Y-130013519D01*
X136136147Y-130152900D01*
X136200297Y-130307772D01*
X136233000Y-130472184D01*
X136233000Y-130639816D01*
X136200297Y-130804228D01*
X136136147Y-130959100D01*
X136043015Y-131098481D01*
X135924481Y-131217015D01*
X135785100Y-131310147D01*
X135630228Y-131374297D01*
X135465816Y-131407000D01*
X135298184Y-131407000D01*
X135133772Y-131374297D01*
X134978900Y-131310147D01*
X134839519Y-131217015D01*
X134720985Y-131098481D01*
X134627853Y-130959100D01*
X134563703Y-130804228D01*
X134531000Y-130639816D01*
X134531000Y-130472184D01*
X134563703Y-130307772D01*
X134627853Y-130152900D01*
X134720985Y-130013519D01*
X134839519Y-129894985D01*
X134978900Y-129801853D01*
X135133772Y-129737703D01*
X135298184Y-129705000D01*
X135465816Y-129705000D01*
X135630228Y-129737703D01*
G37*
G36*
X120390228Y-129737703D02*
G01*
X120545100Y-129801853D01*
X120684481Y-129894985D01*
X120803015Y-130013519D01*
X120896147Y-130152900D01*
X120960297Y-130307772D01*
X120993000Y-130472184D01*
X120993000Y-130639816D01*
X120960297Y-130804228D01*
X120896147Y-130959100D01*
X120803015Y-131098481D01*
X120684481Y-131217015D01*
X120545100Y-131310147D01*
X120390228Y-131374297D01*
X120225816Y-131407000D01*
X120058184Y-131407000D01*
X119893772Y-131374297D01*
X119738900Y-131310147D01*
X119599519Y-131217015D01*
X119480985Y-131098481D01*
X119387853Y-130959100D01*
X119323703Y-130804228D01*
X119291000Y-130639816D01*
X119291000Y-130472184D01*
X119323703Y-130307772D01*
X119387853Y-130152900D01*
X119480985Y-130013519D01*
X119599519Y-129894985D01*
X119738900Y-129801853D01*
X119893772Y-129737703D01*
X120058184Y-129705000D01*
X120225816Y-129705000D01*
X120390228Y-129737703D01*
G37*
G36*
X145922701Y-102362358D02*
G01*
X144623480Y-102968195D01*
X144017643Y-103250701D01*
X144017642Y-103250701D01*
X143129299Y-101345642D01*
X144475904Y-100717710D01*
X145034357Y-100457299D01*
X145034358Y-100457299D01*
X145922701Y-102362358D01*
G37*
G36*
X149436608Y-98696488D02*
G01*
X149627877Y-98775714D01*
X149627879Y-98775715D01*
X149800017Y-98890734D01*
X149946409Y-99037126D01*
X150061429Y-99209266D01*
X150140655Y-99400535D01*
X150181044Y-99603583D01*
X150181044Y-99810615D01*
X150140655Y-100013663D01*
X150061429Y-100204932D01*
X150061428Y-100204934D01*
X149946409Y-100377072D01*
X149800017Y-100523464D01*
X149627879Y-100638483D01*
X149627878Y-100638484D01*
X149627877Y-100638484D01*
X149436608Y-100717710D01*
X149233560Y-100758099D01*
X149026528Y-100758099D01*
X148823480Y-100717710D01*
X148632211Y-100638484D01*
X148632210Y-100638484D01*
X148632209Y-100638483D01*
X148460071Y-100523464D01*
X148313679Y-100377072D01*
X148198660Y-100204934D01*
X148198659Y-100204932D01*
X148119433Y-100013663D01*
X148079044Y-99810615D01*
X148079044Y-99603583D01*
X148119433Y-99400535D01*
X148198659Y-99209266D01*
X148313679Y-99037126D01*
X148460071Y-98890734D01*
X148632209Y-98775715D01*
X148632211Y-98775714D01*
X148823480Y-98696488D01*
X149026528Y-98656099D01*
X149233560Y-98656099D01*
X149436608Y-98696488D01*
G37*
M02*
