M48
; DRILL file {KiCad (5.1.5)-1} date 6/10/2021 8:44:56 PM
; FORMAT={-:-/ absolute / inch / decimal}
; #@! TF.CreationDate,2021-06-10T20:44:56-04:00
; #@! TF.GenerationSoftware,Kicad,Pcbnew,(5.1.5)-1
; #@! TF.FileFunction,Plated,1,2,PTH
FMAT,2
INCH
T1C0.0315
T2C0.0323
T3C0.0394
T4C0.0591
%
G90
G05
T1
X5.56Y-5.98
X5.56Y-6.18
T2
X4.73Y-5.14
X4.73Y-5.24
X4.73Y-5.34
X4.73Y-5.44
X4.73Y-5.54
X4.73Y-5.64
X4.73Y-5.74
X4.73Y-5.84
X4.73Y-5.94
X4.73Y-6.04
X4.73Y-6.14
X4.73Y-6.24
X5.33Y-5.14
X5.33Y-5.24
X5.33Y-5.34
X5.33Y-5.44
X5.33Y-5.54
X5.33Y-5.64
X5.33Y-5.74
X5.33Y-5.84
X5.33Y-5.94
X5.33Y-6.04
X5.33Y-6.14
X5.33Y-6.24
T3
X5.69Y-4.01
X5.8713Y-3.9255
T4
X4.8381Y-5.5196
X4.885Y-5.27
X5.035Y-5.6023
X5.135Y-5.17
T0
M30
